<?xml version="1.0" encoding="UTF-8"?>
<svg width="144px" height="43px" viewBox="0 0 144 43" version="1.1" xmlns="http://www.w3.org/2000/svg" xmlns:xlink="http://www.w3.org/1999/xlink">
    <!-- Generator: Sketch 52.6 (67491) - http://www.bohemiancoding.com/sketch -->
    <title>btn-apple_store</title>
    <desc>Created with Sketch.</desc>
    <g id="Symbols" stroke="none" stroke-width="1" fill="none" fill-rule="evenodd">
        <g id="modulos-1280/footer/publica" transform="translate(-375.000000, -242.000000)">
            <g id="footer">
                <g id="pie-confianza">
                    <g id="app">
                        <g id="text" transform="translate(375.000000, 80.000000)">
                            <g id="btn-apple_store" transform="translate(0.000000, 162.000000)">
                                <path d="M138.671148,43 L5.03744379,43 C2.25798817,43 0,40.7124 0,37.91224 L0,5.08174 C0.00375785218,2.27573789 2.25731079,0.00236857463 5.03744379,0 L138.671148,0 C141.447195,0 143.786982,2.279 143.786982,5.08002 L143.786982,37.91138 C143.786982,40.7124 141.447195,43 138.671148,43 Z" id="Path" fill="#000000"></path>
                                <path d="M142.755976,37.9131 C142.756203,39.005843 142.325982,40.0538455 141.5601,40.8262088 C140.794219,41.5985721 139.75552,42.0319214 138.672852,42.03078 L5.03573964,42.03078 C3.9526016,42.031921 2.91337704,41.5987362 2.14668381,40.8265212 C1.37999058,40.0543063 0.948632286,39.0063172 0.947502959,37.9131 L0.947502959,5.07916 C0.950793665,2.80167986 2.78095907,0.957177578 5.03744379,0.95718 L138.671148,0.95718 C140.929136,0.95718 142.755124,2.80618 142.755124,5.07916 L142.756828,37.9131 L142.755976,37.9131 Z" id="Path" fill="#000000"></path>
                                <path d="M32.0889941,21.2678 C32.0566154,17.80286 34.9008284,16.11812 35.0286391,16.039 C33.4207811,13.67056 30.9259172,13.3472 30.0491361,13.3214 C27.9547456,13.09866 25.9225562,14.58646 24.8549112,14.58646 C23.7668166,14.58646 22.1231716,13.34204 20.351716,13.37816 C18.072426,13.41428 15.9396923,14.74556 14.7706509,16.81386 C12.3567337,21.0313 14.1571598,27.22846 16.4696805,30.63836 C17.6259408,32.30676 18.9773254,34.17124 20.7470769,34.10588 C22.4767811,34.03364 23.1217988,32.99132 25.211929,32.99132 C27.2807574,32.99132 27.888284,34.10674 29.6921183,34.0646 C31.5496331,34.0345 32.7169704,32.3876 33.8357396,30.70286 C35.1709349,28.78936 35.7077396,26.90596 35.7290414,26.80964 C35.6864379,26.79416 32.1222249,25.42246 32.0864379,21.26866 L32.0889941,21.2678 Z M28.6807101,11.07852 C29.6120237,9.90376 30.2485207,8.30588 30.072142,6.6822 C28.7241657,6.74326 27.0387692,7.6239 26.0691124,8.77286 C25.2102249,9.7868 24.4433609,11.4466 24.6418935,13.00836 C26.1543195,13.12102 27.7093491,12.23694 28.6807101,11.08024 L28.6807101,11.07852 Z M57.1364734,33.8668 L54.72,33.8668 L53.3941775,29.66312 L48.7887337,29.66312 L47.5259645,33.8668 L45.1725444,33.8668 L49.7353846,19.5607 L52.5531834,19.5607 L57.1381775,33.8668 L57.1364734,33.8668 Z M52.9937041,27.90012 L51.7956923,24.166 C51.6678817,23.78416 51.4310059,22.88632 51.0816568,21.47076 L51.0390533,21.47076 C50.8984615,22.07964 50.6735148,22.97834 50.3650651,24.166 L49.188355,27.90184 L52.9937041,27.90184 L52.9937041,27.90012 Z M68.8711953,28.5821 C68.8711953,30.3365 68.4025562,31.72282 67.4618698,32.74192 C66.6200237,33.6475 65.5745325,34.10072 64.3271006,34.10072 C62.9808284,34.10072 62.0137278,33.6131 61.4249467,32.63872 L61.3823432,32.63872 L61.3823432,38.07134 L59.112426,38.07134 L59.112426,26.94724 C59.112426,25.84386 59.0834556,24.71124 59.0272189,23.55024 L61.0253254,23.55024 L61.1531361,25.18596 L61.1957396,25.18596 C61.9523787,23.95272 63.1026746,23.33696 64.6432189,23.33696 C65.8488994,23.33696 66.8560473,23.81856 67.6612544,24.7809 C68.4681657,25.7441 68.8711953,27.01002 68.8711953,28.58124 L68.8711953,28.5821 Z M66.5578225,28.66552 C66.5578225,27.6619 66.3337278,26.83372 65.8846864,26.1827 C65.3947456,25.5033 64.7343905,25.1636 63.9078817,25.1636 C63.3472189,25.1636 62.8385325,25.3528 62.3843787,25.72604 C61.9268166,26.10186 61.6285917,26.59464 61.4897041,27.20266 C61.4198343,27.48646 61.3831953,27.71866 61.3831953,27.90184 L61.3831953,29.62184 C61.3831953,30.37176 61.6124024,31.00472 62.0682604,31.52244 C62.5241183,32.0393 63.1163077,32.29644 63.8448284,32.29644 C64.7003077,32.29644 65.3657751,31.96276 65.8420828,31.2997 C66.3192426,30.6332 66.5578225,29.75686 66.5578225,28.66552 Z M80.6272189,28.5821 C80.6272189,30.3365 80.1568757,31.72282 79.2161893,32.74278 C78.3743432,33.6475 77.3305562,34.09986 76.0848284,34.09986 C74.7377041,34.09986 73.7706036,33.6131 73.1826746,32.63786 L73.140071,32.63786 L73.140071,38.07134 L70.8693018,38.07134 L70.8693018,26.94724 C70.8693018,25.84386 70.8403314,24.71124 70.7840947,23.55024 L72.7822012,23.55024 L72.9100118,25.18596 L72.9526154,25.18596 C73.7084024,23.95272 74.8569941,23.33696 76.4000947,23.33696 C77.6057751,23.33696 78.612071,23.81856 79.4198343,24.7809 C80.2233373,25.7441 80.6272189,27.01002 80.6272189,28.58124 L80.6272189,28.5821 Z M78.3129941,28.66638 C78.3129941,27.6619 78.0888994,26.83458 77.6390059,26.1827 C77.1490651,25.5033 76.4904142,25.1636 75.6622012,25.1636 C75.0998343,25.1636 74.5928521,25.3528 74.1369941,25.72604 C73.6811361,26.10186 73.3837633,26.59464 73.2440237,27.20266 C73.1741538,27.48646 73.1375148,27.71866 73.1375148,27.90184 L73.1375148,29.62184 C73.1375148,30.37176 73.3658698,31.00472 73.8191716,31.52244 C74.2750296,32.03844 74.8672189,32.29644 75.5982959,32.29644 C76.4529231,32.29644 77.1192426,31.96276 77.5946982,31.2997 C78.071858,30.6332 78.3104379,29.75686 78.3104379,28.66552 L78.3129941,28.66552 L78.3129941,28.66638 Z M93.7704142,29.8549 C93.7704142,31.0718 93.3511953,32.06166 92.5102012,32.8262 C91.5874083,33.66126 90.3016331,34.07836 88.6494675,34.07836 C87.1242604,34.07836 85.9015385,33.78252 84.9753373,33.18826 L85.5019172,31.2782 C86.4908645,31.8847475 87.6277625,32.2010259 88.7849467,32.19152 C89.6387219,32.19152 90.3050414,31.9963 90.7830533,31.60672 C91.2593609,31.21972 91.4962367,30.69684 91.4962367,30.04496 C91.4962367,29.46446 91.3002604,28.97512 90.9074556,28.57866 C90.516355,28.18134 89.8636686,27.81326 88.9519527,27.47184 C86.4707219,26.53874 85.2309586,25.17134 85.2309586,23.3705 C85.2309586,22.19402 85.6655148,21.23082 86.5346272,20.47832 C87.4020355,19.7284 88.5591479,19.35344 90.0051124,19.35344 C91.2942959,19.35344 92.3670533,19.58134 93.2216805,20.0337 L92.6542012,21.90162 C91.8558107,21.46474 90.9526154,21.2463 89.9412071,21.2463 C89.1428166,21.2463 88.5182485,21.4441 88.0709112,21.8397 C87.6934438,22.19402 87.503432,22.62402 87.503432,23.13486 C87.503432,23.70074 87.719858,24.16686 88.1535621,24.5358 C88.5327337,24.8755 89.2186509,25.24272 90.215574,25.64004 C91.4357396,26.13454 92.3312663,26.71504 92.9081183,27.37896 C93.4832663,28.04116 93.7704142,28.8702 93.7704142,29.8592 L93.7704142,29.8549 Z M101.27716,25.2711 L98.7746272,25.2711 L98.7746272,30.2806 C98.7746272,31.5534 99.2151479,32.1898 100.099598,32.1898 C100.504331,32.1898 100.840899,32.15454 101.107598,32.0823 L101.169799,33.8238 C100.722462,33.99236 100.13368,34.0775 99.4034556,34.0775 C98.5070769,34.0775 97.8058225,33.80144 97.3005444,33.25018 C96.7961183,32.6972 96.5439053,31.77098 96.5439053,30.46894 L96.5439053,25.26852 L95.0527811,25.26852 L95.0527811,23.54852 L96.5439053,23.54852 L96.5439053,21.66082 L98.7729231,20.98142 L98.7729231,23.55024 L101.276308,23.55024 L101.276308,25.27024 L101.27716,25.2711 Z M112.569657,28.62424 C112.569657,30.20922 112.12232,31.51126 111.223385,32.5295 C110.28355,33.57784 109.035266,34.099 107.479385,34.099 C105.980592,34.099 104.78684,33.59762 103.896426,32.594 C103.006012,31.58952 102.560379,30.32274 102.560379,28.79452 C102.560379,27.19664 103.018793,25.88772 103.938178,24.86862 C104.854154,23.84952 106.092213,23.3404 107.648947,23.3404 C109.146888,23.3404 110.354272,23.84264 111.264284,24.84712 C112.135953,25.82236 112.570509,27.0814 112.570509,28.62424 L112.569657,28.62424 Z M110.215385,28.69906 C110.215385,27.74704 110.013444,26.9309 109.605302,26.25064 C109.128994,25.4259 108.448189,25.01396 107.566296,25.01396 C106.653728,25.01396 105.960142,25.42676 105.484686,26.25064 C105.075692,26.9309 104.875456,27.75994 104.875456,28.74034 C104.875456,29.6915 105.077396,30.50764 105.484686,31.18704 C105.974627,32.01006 106.660544,32.42114 107.546698,32.42114 C108.413254,32.42114 109.094059,32.00146 109.584852,31.16554 C110.003219,30.47152 110.212828,29.64764 110.212828,28.69734 L110.215385,28.69906 Z M119.950296,25.56694 C119.715089,25.5229792 119.476316,25.5013846 119.237112,25.50244 C118.43787,25.50244 117.820118,25.80774 117.383858,26.41576 C117.006391,26.95326 116.817231,27.63352 116.817231,28.45396 L116.817231,33.86594 L114.548166,33.86594 L114.569467,26.79846 C114.569467,25.60994 114.539645,24.5272 114.48426,23.55196 L116.461065,23.55196 L116.544568,25.5248 L116.608473,25.5248 C116.847053,24.84712 117.226225,24.2993 117.741728,23.8908 C118.24871,23.52186 118.794888,23.33782 119.382817,23.33782 C119.593278,23.33782 119.78329,23.35502 119.951148,23.38082 L119.951148,25.56694 L119.950296,25.56694 Z M130.106982,28.2209 C130.106982,28.63198 130.080568,28.9777 130.024331,29.26064 L123.212024,29.26064 C123.237586,30.27802 123.567337,31.05804 124.200426,31.59554 C124.775574,32.07542 125.516876,32.31536 126.428592,32.31536 C127.436592,32.31536 128.355976,32.15454 129.185041,31.8286 L129.540355,33.4196 C128.573254,33.84444 127.431479,34.056 126.114178,34.056 C124.529325,34.056 123.285302,33.58472 122.37955,32.64474 C121.478059,31.70304 121.024757,30.44056 121.024757,28.85472 C121.024757,27.29984 121.44568,26.00382 122.288379,24.97096 C123.170272,23.86844 124.36232,23.31546 125.861964,23.31546 C127.333491,23.31546 128.449704,23.86844 129.206343,24.97096 C129.805349,25.8473 130.106982,26.9309 130.106982,28.21746 L130.106982,28.2209 Z M127.94187,27.62664 C127.956355,26.94552 127.808947,26.35814 127.500497,25.86364 C127.10684,25.22638 126.502722,24.90646 125.689846,24.90646 C124.947692,24.90646 124.343574,25.21864 123.882604,25.84214 C123.504284,26.33664 123.280189,26.93176 123.212024,27.62406 L127.941018,27.62406 L127.941018,27.62664 L127.94187,27.62664 Z M52.2430296,10.76032 C52.2430296,12.02452 51.8664142,12.9774 51.1157396,13.61724 C50.4204497,14.20806 49.4328994,14.50304 48.1513846,14.50304 C47.5157396,14.50304 46.9729704,14.47552 46.5179645,14.41962 L46.5179645,7.5078 C47.1537994,7.40701807 47.7966154,7.35784058 48.4402367,7.36074 C49.6612544,7.36074 50.5814911,7.62906 51.1992426,8.16312 C51.8945325,8.76856 52.2430296,9.63372 52.2430296,10.76032 Z M51.0654675,10.79042 C51.0654675,9.97084 50.8507456,9.34132 50.4204497,8.90272 C49.9884497,8.46584 49.3604734,8.2474 48.5331124,8.2474 C48.1812071,8.2474 47.8829822,8.2689 47.6341775,8.31964 L47.6341775,13.57424 C47.772213,13.59574 48.0227219,13.60606 48.3882604,13.60606 C49.2420355,13.60606 49.9006864,13.36526 50.3659172,12.88624 C50.8311479,12.40636 51.0637633,11.70804 51.0637633,10.78956 L51.0654675,10.79128 L51.0654675,10.79042 Z M58.4844497,11.86542 C58.4844497,12.64372 58.2629112,13.28442 57.8215385,13.78322 C57.359716,14.29922 56.7462249,14.5555 55.9819172,14.5555 C55.247432,14.5555 54.659503,14.30782 54.2215385,13.81332 C53.7852781,13.3214 53.5662959,12.69876 53.5662959,11.94884 C53.5662959,11.16366 53.7903905,10.51866 54.2428402,10.01986 C54.6952899,9.52106 55.3019645,9.2708 56.0662722,9.2708 C56.8016095,9.2708 57.3946509,9.51848 57.8428402,10.0104 C58.2688757,10.49114 58.4818935,11.11034 58.4818935,11.86714 L58.4835976,11.86456 L58.4844497,11.86542 Z M57.3256331,11.90154 C57.3256331,11.43456 57.2250888,11.0338 57.0274083,10.69926 C56.7930888,10.29506 56.4582249,10.09296 56.0262249,10.09296 C55.5763314,10.09296 55.235503,10.29506 55.0011834,10.69926 C54.8009467,11.03294 54.7029586,11.44144 54.7029586,11.92304 C54.7029586,12.39002 54.8017988,12.79164 55.0011834,13.12704 C55.2431716,13.53038 55.5797396,13.73248 56.0134438,13.73248 C56.4394793,13.73248 56.7743432,13.5278 57.0146272,13.115 C57.2216805,12.77358 57.3256331,12.36938 57.3256331,11.90068 L57.3256331,11.90154 Z M66.8500828,9.374 L65.279716,14.44026 L64.2572308,14.44026 L63.6071006,12.23952 C63.4440971,11.7014645 63.3090025,11.1551962 63.2023669,10.60294 L63.1810651,10.60294 C63.0856331,11.15936 62.9510059,11.7046 62.7780355,12.23952 L62.0861538,14.44112 L61.0534438,14.44112 L59.5759527,9.374 L60.7228402,9.374 L61.2903195,11.782 C61.4292071,12.35132 61.5408284,12.89484 61.6311479,13.40826 L61.6524497,13.40826 C61.7351006,12.98514 61.872284,12.44506 62.0657041,11.79232 L62.7797396,9.374 L63.6880473,9.374 L64.3697041,11.74072 C64.535858,12.31864 64.6704852,12.8742 64.7744379,13.40912 L64.8042604,13.40912 C64.887812,12.8471604 65.0015896,12.2902042 65.1450888,11.74072 L65.7543195,9.374 L66.851787,9.374 L66.8500828,9.374 Z M72.6373491,14.44026 L71.5211361,14.44026 L71.5211361,11.53776 C71.5211361,10.64336 71.183716,10.19616 70.5088757,10.19616 C70.1791243,10.19616 69.9098698,10.31914 69.7028166,10.5651 C69.4988439,10.8072417 69.3889315,11.1159045 69.3935148,11.4337 L69.3935148,14.4394 L68.2764497,14.4394 L68.2764497,10.82138 C68.2764497,10.3759 68.2636686,9.89258 68.2372544,9.3697 L69.2171361,9.3697 L69.2699645,10.16262 L69.3023432,10.16262 C69.4301538,9.9158 69.624426,9.7137 69.8791953,9.5503 C70.1816805,9.36196 70.5208047,9.2665 70.8914556,9.2665 C71.3600947,9.2665 71.7494911,9.41872 72.0587929,9.72574 C72.4447811,10.10156 72.6382012,10.66056 72.6382012,11.40446 L72.6382012,14.44026 L72.6373491,14.44026 Z M75.7150296,14.44026 L74.5988166,14.44026 L74.5988166,7.0477 L75.7150296,7.0477 L75.7150296,14.44026 Z M82.2862012,11.86456 C82.2862012,12.64372 82.0663669,13.28356 81.6258462,13.78322 C81.1631716,14.29922 80.5505325,14.5555 79.7853728,14.5555 C79.0474793,14.5555 78.4604024,14.30782 78.024142,13.81332 C77.5870296,13.3214 77.3688994,12.69876 77.3688994,11.94884 C77.3688994,11.16366 77.5946982,10.51866 78.0462959,10.01986 C78.4978935,9.52106 79.1054201,9.2708 79.8680237,9.2708 C80.6067692,9.2708 81.1989586,9.51762 81.6462959,10.0104 C82.0723314,10.49114 82.2879053,11.11034 82.2879053,11.86714 L82.2862012,11.86456 Z M81.1273846,11.90154 C81.1273846,11.43456 81.0276923,11.0338 80.8291598,10.69926 C80.5948402,10.29506 80.2608284,10.09296 79.8279763,10.09296 C79.3789349,10.09296 79.0381065,10.29506 78.8054911,10.69926 C78.6035503,11.03294 78.5055621,11.44144 78.5055621,11.92304 C78.5055621,12.39002 78.6052544,12.79164 78.803787,13.12704 C79.0466272,13.52952 79.3831953,13.73162 79.8177515,13.73162 C80.243787,13.73162 80.5769467,13.5278 80.8189349,13.115 C81.0251361,12.77272 81.1273846,12.36852 81.1273846,11.89982 L81.1273846,11.90154 Z M87.6883314,14.44026 L86.6871479,14.44026 L86.6019408,13.85632 L86.5721183,13.85632 C86.2295858,14.32244 85.7413491,14.5555 85.1065562,14.5555 C84.6319527,14.5555 84.2485207,14.40156 83.9596686,14.09626 C83.6963787,13.81934 83.5660118,13.47276 83.5660118,13.06426 C83.5660118,12.44506 83.8216331,11.97292 84.335432,11.64526 C84.8492308,11.31932 85.5709349,11.15936 86.5013964,11.1671 L86.5013964,11.0725 C86.5013964,10.406 86.1537515,10.07232 85.4576095,10.07232 C84.9634083,10.07232 84.5262959,10.19702 84.1496805,10.44642 L83.9221775,9.70682 C84.3891124,9.417 84.9659645,9.26994 85.6450651,9.26994 C86.9572544,9.26994 87.6150533,9.96826 87.6150533,11.36576 L87.6150533,13.23196 C87.6150533,13.73764 87.6397633,14.14098 87.6874793,14.4394 L87.6883314,14.44026 Z M86.5295148,12.69876 L86.5295148,11.91702 C85.2982722,11.89552 84.6830769,12.23694 84.6830769,12.9387 C84.6830769,13.20272 84.7529467,13.40052 84.8960947,13.53296 C85.0409467,13.66454 85.224142,13.7299 85.4422722,13.7299 C85.6876686,13.7299 85.9177278,13.65164 86.1264852,13.49512 C86.3838751,13.3134249 86.5354352,13.0148909 86.5312189,12.6979 L86.5295148,12.69876 Z M94.0311479,14.44026 L93.0410414,14.44026 L92.9873609,13.6267 L92.9575385,13.6267 C92.6414201,14.2459 92.1020592,14.5555 91.3454201,14.5555 C90.7404497,14.5555 90.2377278,14.31556 89.8372544,13.83482 C89.4367811,13.35494 89.2382485,12.73402 89.2382485,11.97034 C89.2382485,11.1499 89.4546746,10.48684 89.8883787,9.97772 C90.3101538,9.50472 90.8256568,9.26822 91.4391479,9.26822 C92.1139882,9.26822 92.5860355,9.49784 92.8552899,9.95622 L92.8765917,9.95622 L92.8765917,7.04856 L93.9928047,7.04856 L93.9928047,13.0763 C93.9928047,13.5708 94.0055858,14.02402 94.032,14.44112 L94.0311479,14.44026 Z M92.8757396,12.30316 L92.8757396,11.45864 C92.8757396,11.31072 92.8646627,11.1929 92.8433609,11.10346 C92.7836608,10.838022 92.6419288,10.5986 92.4386272,10.41976 C92.2328777,10.2371759 91.9669878,10.1387245 91.6930651,10.1437 C91.2781065,10.1437 90.9517633,10.31054 90.7114793,10.64422 C90.4737515,10.9779 90.3536095,11.40532 90.3536095,11.92734 C90.3536095,12.42786 90.467787,12.83464 90.696142,13.14682 C90.9166502,13.4694462 91.2835536,13.658001 91.6717633,13.6482 C92.0381538,13.6482 92.3321183,13.50802 92.5536568,13.2311 C92.7692308,12.9731 92.8731834,12.66436 92.8731834,12.30316 L92.8757396,12.30316 Z M103.577751,11.86456 C103.577751,12.64372 103.357065,13.28356 102.917396,13.78322 C102.45387,14.29922 101.841231,14.5555 101.076923,14.5555 C100.341586,14.5555 99.7536568,14.30782 99.3148402,13.81332 C98.8785799,13.3214 98.6604497,12.69876 98.6604497,11.94884 C98.6604497,11.16366 98.8862485,10.51866 99.3378462,10.01986 C99.7894438,9.52106 100.396118,9.2708 101.16213,9.2708 C101.896615,9.2708 102.490509,9.51762 102.937846,10.0104 C103.363882,10.49114 103.576899,11.11034 103.576899,11.86714 L103.577751,11.86456 Z M102.420639,11.90154 C102.420639,11.43456 102.320947,11.0338 102.122414,10.69926 C101.886391,10.29506 101.554083,10.09296 101.119527,10.09296 C100.672189,10.09296 100.331361,10.29506 100.097041,10.69926 C99.8942485,11.03294 99.7971124,11.44144 99.7971124,11.92304 C99.7971124,12.39002 99.8968047,12.79164 100.095337,13.12704 C100.337325,13.52952 100.674746,13.73162 101.109302,13.73162 C101.535337,13.73162 101.870201,13.5278 102.110485,13.115 C102.316686,12.77272 102.421491,12.36852 102.421491,11.89982 L102.421491,11.90154 L102.420639,11.90154 Z M109.57974,14.44026 L108.464379,14.44026 L108.464379,11.53776 C108.464379,10.64336 108.127811,10.19616 107.452118,10.19616 C107.119811,10.19616 106.853112,10.31914 106.646059,10.5651 C106.440991,10.8067125 106.330396,11.1155904 106.335053,11.4337 L106.335053,14.4394 L105.217136,14.4394 L105.217136,10.82138 C105.217136,10.3759 105.206059,9.89258 105.178793,9.3697 L106.158675,9.3697 L106.211503,10.16262 L106.241325,10.16262 C106.372544,9.9158 106.565964,9.7137 106.819882,9.5503 C107.123219,9.36196 107.460639,9.2665 107.83129,9.2665 C108.299929,9.2665 108.690178,9.41872 109.000331,9.72574 C109.38632,10.10156 109.578036,10.66056 109.578036,11.40446 L109.578036,14.4394 L109.57974,14.44026 Z M117.091598,10.2168 L115.862911,10.2168 L115.862911,12.67812 C115.862911,13.3042 116.081041,13.61724 116.512189,13.61724 C116.71413,13.61724 116.879432,13.60004 117.010651,13.56306 L117.039621,14.41876 C116.818935,14.50304 116.528379,14.54518 116.172213,14.54518 C115.731692,14.54518 115.388308,14.4093 115.139503,14.1384 C114.89155,13.8675 114.766296,13.4117 114.766296,12.77358 L114.766296,10.21594 L114.033515,10.21594 L114.033515,9.374 L114.768852,9.374 L114.768852,8.44434 L115.861207,8.11066 L115.861207,9.37228 L117.091598,9.37228 L117.091598,10.2168 Z M123.00071,14.44026 L121.881941,14.44026 L121.881941,11.55926 C121.881941,10.6511 121.547077,10.19616 120.872237,10.19616 C120.35503,10.19616 120.00142,10.45932 119.807148,10.9865 C119.770775,11.1183452 119.752991,11.2547057 119.75432,11.39156 L119.75432,14.4394 L118.639811,14.4394 L118.639811,7.0477 L119.756024,7.0477 L119.756024,10.1007 L119.776473,10.1007 C120.128379,9.546 120.631953,9.26908 121.284639,9.26908 C121.747314,9.26908 122.129041,9.4213 122.433231,9.72746 C122.812402,10.10844 123.001562,10.67604 123.001562,11.42596 L123.001562,14.4394 L123.00071,14.44026 Z M129.096426,11.66676 C129.096426,11.86886 129.081089,12.03914 129.053822,12.1776 L125.706888,12.1776 C125.722225,12.67812 125.881562,13.0591 126.191716,13.32484 C126.475456,13.56134 126.841846,13.67916 127.289183,13.67916 C127.783385,13.67916 128.234982,13.60004 128.64142,13.43922 L128.816095,14.22182 C128.339787,14.4308 127.779976,14.534 127.130698,14.534 C126.353609,14.534 125.741822,14.30352 125.298746,13.8417 C124.851408,13.37902 124.632426,12.75896 124.632426,11.98152 C124.632426,11.21612 124.837775,10.57972 125.251882,10.07232 C125.684734,9.53052 126.269254,9.25962 127.007148,9.25962 C127.729704,9.25962 128.278438,9.53052 128.648237,10.07232 C128.948166,10.50232 129.095574,11.03552 129.095574,11.66676 L129.096426,11.66676 Z M128.031337,11.37694 C128.039858,11.04154 127.967432,10.75344 127.814911,10.51006 C127.621491,10.19874 127.32497,10.0405 126.927053,10.0405 C126.562367,10.0405 126.266698,10.19272 126.038343,10.49974 C125.849141,10.7545164 125.734861,11.0579269 125.708592,11.37522 L128.030485,11.37522 L128.030485,11.37694 L128.031337,11.37694 Z" id="Shape" fill="#FFFFFF" fill-rule="nonzero"></path>
                            </g>
                        </g>
                    </g>
                </g>
            </g>
        </g>
    </g>
</svg>