<?xml version="1.0" encoding="UTF-8"?>
<svg width="145px" height="43px" viewBox="0 0 145 43" version="1.1" xmlns="http://www.w3.org/2000/svg" xmlns:xlink="http://www.w3.org/1999/xlink">
    <!-- Generator: Sketch 52.6 (67491) - http://www.bohemiancoding.com/sketch -->
    <title>btn-google_play</title>
    <desc>Created with Sketch.</desc>
    <defs>
        <linearGradient x1="91.491%" y1="4.962%" x2="-38.333%" y2="71.909%" id="linearGradient-1">
            <stop stop-color="#00A0FF" offset="0%"></stop>
            <stop stop-color="#00A1FF" offset="0.7%"></stop>
            <stop stop-color="#00BEFF" offset="26%"></stop>
            <stop stop-color="#00D2FF" offset="51.2%"></stop>
            <stop stop-color="#00DFFF" offset="76%"></stop>
            <stop stop-color="#00E3FF" offset="100%"></stop>
        </linearGradient>
        <linearGradient x1="107.595%" y1="50.012%" x2="-130.503%" y2="50.012%" id="linearGradient-2">
            <stop stop-color="#FFE000" offset="0%"></stop>
            <stop stop-color="#FFBD00" offset="40.9%"></stop>
            <stop stop-color="#FFA500" offset="77.5%"></stop>
            <stop stop-color="#FF9C00" offset="100%"></stop>
        </linearGradient>
        <linearGradient x1="86.231%" y1="117.85%" x2="-50.126%" y2="294.782%" id="linearGradient-3">
            <stop stop-color="#FF3A44" offset="0%"></stop>
            <stop stop-color="#C31162" offset="100%"></stop>
        </linearGradient>
        <linearGradient x1="-18.784%" y1="-154.166%" x2="42.1%" y2="-75.131%" id="linearGradient-4">
            <stop stop-color="#32A071" offset="0%"></stop>
            <stop stop-color="#2DA771" offset="6.9%"></stop>
            <stop stop-color="#15CF74" offset="47.6%"></stop>
            <stop stop-color="#06E775" offset="80.1%"></stop>
            <stop stop-color="#00F076" offset="100%"></stop>
        </linearGradient>
    </defs>
    <g id="Symbols" stroke="none" stroke-width="1" fill="none" fill-rule="evenodd">
        <g id="modulos-1280/footer/publica" transform="translate(-531.000000, -242.000000)">
            <g id="footer">
                <g id="pie-confianza">
                    <g id="app">
                        <g id="text" transform="translate(375.000000, 80.000000)">
                            <g id="btn-google_play" transform="translate(156.000000, 162.000000)">
                                <path d="M139.178676,42.93894 L5.58676471,42.93894 C2.64923529,42.93894 0.243088235,40.54126 0.243088235,37.61296 L0.243088235,5.66052 C0.243088235,2.7348 2.64923529,0.33712 5.58676471,0.33712 L139.178676,0.33712 C142.116206,0.33712 144.519794,2.7348 144.519794,5.66224 L144.519794,37.61382 C144.519794,40.54126 142.116206,42.93894 139.178676,42.93894 Z" id="Path" fill="#000000"></path>
                                <path d="M139.178676,1.1911 C141.652206,1.1911 143.665147,3.19662 143.665147,5.6631 L143.665147,37.6121 C143.665147,40.07944 141.652206,42.0841 139.176971,42.0841 L5.58676471,42.0841 C3.11323529,42.0841 1.10029412,40.07944 1.10029412,37.6121 L1.10029412,5.66482 C1.10029412,3.1992 3.11323529,1.19282 5.58676471,1.19282 L139.178676,1.19282 L139.178676,1.1911 Z M139.178676,0.3397 L5.58676471,0.3397 C2.64923529,0.33712 0.243088235,2.7348 0.243088235,5.66224 L0.243088235,37.61382 C0.243088235,40.54126 2.64923529,42.93894 5.58676471,42.93894 L139.178676,42.93894 C142.116206,42.93894 144.519794,40.54126 144.519794,37.61296 L144.519794,5.66052 C144.519794,2.73394 142.116206,0.33712 139.178676,0.33712 L139.178676,0.3397 Z" id="Shape"></path>
                                <path d="M50.9205882,11.24708 C50.9205882,12.13632 50.6527647,12.8484 50.1265,13.37988 C49.5209118,14.0094 48.7327941,14.32588 47.7672647,14.32588 C46.8460882,14.32588 46.0571176,14.00596 45.4088824,13.36956 C44.7606471,12.7237 44.4365294,11.93164 44.4365294,10.9865 C44.4365294,10.0405 44.7606471,9.2493 45.4080294,8.61032 C46.0528529,7.97134 46.8409706,7.64712 47.7647059,7.64712 C48.2235882,7.64712 48.662,7.74086 49.0799412,7.91802 C49.4944706,8.09432 49.8347941,8.33426 50.0821471,8.6301 L49.5209118,9.19168 C49.0944412,8.686 48.5101765,8.43832 47.7638529,8.43832 C47.0900294,8.43832 46.5074706,8.67224 46.0102059,9.14352 C45.5197647,9.6191 45.2758235,10.23314 45.2758235,10.9865 C45.2758235,11.73986 45.5197647,12.35734 46.0102059,12.83292 C46.5049118,13.29904 47.0900294,13.53812 47.763,13.53812 C48.4777647,13.53812 49.0790882,13.29904 49.5533235,12.82776 C49.8655,12.51472 50.0437647,12.08214 50.0906765,11.53174 L47.763,11.53174 L47.763,10.7629 L50.8677059,10.7629 C50.9052353,10.92888 50.9154706,11.0897 50.9154706,11.24622 L50.9197353,11.24708 L50.9205882,11.24708 Z M55.8437647,8.57764 L52.9318235,8.57764 L52.9318235,10.60122 L55.5605882,10.60122 L55.5605882,11.3735 L52.9318235,11.3735 L52.9318235,13.39708 L55.8480294,13.39708 L55.8480294,14.17968 L52.1070294,14.17968 L52.1070294,7.79504 L55.8480294,7.79504 L55.8480294,8.58108 L55.8437647,8.57764 Z M59.3220588,14.17968 L58.4955588,14.17968 L58.4955588,8.57764 L56.7052353,8.57764 L56.7052353,7.79504 L61.1115294,7.79504 L61.1115294,8.58108 L59.3212059,8.58108 L59.3212059,14.17968 L59.3220588,14.17968 Z M64.3006765,14.17968 L64.3006765,7.79504 L65.1229118,7.79504 L65.1229118,14.17968 L64.2989706,14.17968 L64.3006765,14.17968 Z M68.7752059,14.17968 L67.9580882,14.17968 L67.9580882,8.57764 L66.1626471,8.57764 L66.1626471,7.79504 L70.5706471,7.79504 L70.5706471,8.58108 L68.7769118,8.58108 L68.7769118,14.17968 L68.7752059,14.17968 Z M78.9107059,13.35752 C78.2795294,14.00424 77.4948235,14.32674 76.5625588,14.32674 C75.6217647,14.32674 74.8396176,14.00424 74.2075882,13.35838 C73.5764118,12.71596 73.2625294,11.92476 73.2625294,10.98908 C73.2625294,10.0534 73.5772647,9.2622 74.2075882,8.61892 C74.8387647,7.9722 75.6234706,7.6497 76.5617059,7.6497 C77.488,7.6497 78.271,7.9722 78.9030294,8.6215 C79.5393235,9.27424 79.8515,10.05942 79.8515,10.98908 C79.8515,11.92476 79.5393235,12.71596 78.9081471,13.35838 L78.9107059,13.35752 Z M74.8191471,12.82432 C75.2950882,13.30162 75.8742353,13.5407 76.5625588,13.5407 C77.2440588,13.5407 77.8291765,13.30162 78.2991471,12.82174 C78.7733824,12.3453 79.0139118,11.7304 79.0139118,10.98736 C79.0139118,10.24174 78.7733824,9.62942 78.2991471,9.1504 C77.8291765,8.67396 77.2440588,8.43402 76.5625588,8.43402 C75.8716765,8.43402 75.2933824,8.67396 74.8182941,9.15298 C74.3440588,9.62942 74.1035294,10.24518 74.1035294,10.98736 C74.1035294,11.73298 74.3440588,12.34616 74.8165882,12.82518 L74.8191471,12.82518 L74.8191471,12.82432 Z M81.0123529,14.17968 L81.0123529,7.79504 L82.0145588,7.79504 L85.1312059,12.76068 L85.1670294,12.76068 L85.1312059,11.53346 L85.1312059,7.79504 L85.9551471,7.79504 L85.9551471,14.17968 L85.0953824,14.17968 L81.8328824,8.9698 L81.7970588,8.9698 L81.8328824,10.20218 L81.8328824,14.17968 L81.0140588,14.17968 L81.0123529,14.17968 Z" id="Shape" stroke="#FFFFFF" stroke-width="0.5" fill="#FFFFFF" fill-rule="nonzero"></path>
                                <path d="M73.0603824,23.50466 C70.5510294,23.50466 68.5005588,25.40784 68.5005588,28.03514 C68.5005588,30.64008 70.5501765,32.56304 73.0595294,32.56304 C75.5757059,32.56304 77.6261765,30.63836 77.6261765,28.03342 C77.6261765,25.40612 75.5748529,23.50294 73.0586765,23.50294 L73.0603824,23.50466 Z M73.0603824,30.78026 C71.6854412,30.78026 70.499,29.64764 70.499,28.03514 C70.499,26.40114 71.6845882,25.28744 73.0612353,25.28744 C74.4378824,25.28744 75.6302941,26.40028 75.6302941,28.03342 C75.6302941,29.64592 74.4378824,30.77854 73.0603824,30.77854 L73.0603824,30.78026 Z M63.1099706,23.50466 C60.5937941,23.50466 58.5492941,25.40784 58.5492941,28.03514 C58.5492941,30.64008 60.5937941,32.56304 63.1099706,32.56304 C65.6244412,32.56304 67.6715,30.63836 67.6715,28.03342 C67.6715,25.40612 65.6244412,23.50294 63.1116765,23.50294 L63.1099706,23.50466 Z M63.1099706,30.78026 C61.7316176,30.78026 60.5426176,29.64764 60.5426176,28.03514 C60.5426176,26.40114 61.7316176,25.28744 63.1099706,25.28744 C64.4874706,25.28744 65.6722059,26.40028 65.6722059,28.03342 C65.6722059,29.64592 64.4883235,30.77854 63.1099706,30.77854 L63.1099706,30.78026 Z M51.2685882,24.8927 L51.2685882,26.81738 L55.8812941,26.81738 C55.7456765,27.8941 55.3857353,28.68358 54.8321765,29.2357 C54.1583529,29.9022 53.1092353,30.64094 51.2668824,30.64094 C48.4291471,30.64094 46.2055294,28.35764 46.2055294,25.52824 C46.2055294,22.69884 48.4282941,20.41554 51.2660294,20.41554 C52.8013235,20.41554 53.9186765,21.01496 54.7417647,21.78896 L56.1030588,20.43274 C54.9515882,19.33624 53.4162941,18.49344 51.2660294,18.49344 C47.3740588,18.49344 44.1013235,21.64964 44.1013235,25.5291 C44.1013235,29.40942 47.3740588,32.56476 51.2660294,32.56476 C53.3710882,32.56476 54.9507353,31.87676 56.1917647,30.58934 C57.4660588,29.32084 57.8635294,27.53634 57.8635294,26.09584 C57.8635294,25.64864 57.826,25.23756 57.7586176,24.89356 L51.2660294,24.89356 L51.2685882,24.8927 Z M99.6900588,26.38738 C99.3147647,25.37258 98.1564706,23.50638 95.7980882,23.50638 C93.4593235,23.50638 91.5120588,25.3399 91.5120588,28.03514 C91.5120588,30.57214 93.4388529,32.56304 96.0215588,32.56304 C98.1095588,32.56304 99.3139118,31.29454 99.8103235,30.55494 L98.2605294,29.52552 C97.7436471,30.27888 97.0391176,30.7794 96.0224118,30.7794 C95.0091176,30.7794 94.2841176,30.31672 93.8201176,29.40684 L99.8998824,26.89994 L99.6883529,26.38394 L99.6892059,26.38738 L99.6900588,26.38738 Z M93.4908824,27.8941 C93.4371471,26.14744 94.8521765,25.25304 95.8654706,25.25304 C96.6587059,25.25304 97.3325294,25.64864 97.556,26.21538 L93.4917353,27.89496 L93.4908824,27.8941 Z M88.5497941,32.2887 L90.5482353,32.2887 L90.5482353,18.9759 L88.5497941,18.9759 L88.5497941,32.2887 Z M85.2770588,24.51344 L85.2096765,24.51344 C84.7618824,23.98282 83.9063824,23.50466 82.8214412,23.50466 C80.5440882,23.50466 78.4629118,25.49556 78.4629118,28.04976 C78.4629118,30.58676 80.5440882,32.56476 82.8205882,32.56476 C83.9046765,32.56476 84.7610294,32.08144 85.2088235,31.53534 L85.2770588,31.53534 L85.2770588,32.18464 C85.2770588,33.91496 84.3490588,34.84634 82.8504412,34.84634 C81.6298824,34.84634 80.8724706,33.96828 80.5577353,33.22868 L78.8202941,33.9528 C79.3218235,35.15336 80.649,36.62998 82.8504412,36.62998 C85.1934706,36.62998 87.1705882,35.25656 87.1705882,31.9146 L87.1705882,23.779 L85.2770588,23.779 L85.2770588,24.51344 Z M82.9911765,30.7794 C81.6136765,30.7794 80.4613529,29.62958 80.4613529,28.0489 C80.4613529,26.45274 81.6128235,25.28658 82.9911765,25.28658 C84.3482059,25.28658 85.4186471,26.45274 85.4186471,28.0489 C85.4186471,29.62958 84.3482059,30.7794 82.9911765,30.7794 Z M109.045971,18.9759 L104.266941,18.9759 L104.266941,32.28784 L106.260265,32.28784 L106.260265,27.24308 L109.045971,27.24308 C111.260206,27.24308 113.430088,25.64692 113.430088,23.1082 C113.430088,20.5712 111.255088,18.97504 109.045971,18.97504 L109.045971,18.9759 Z M109.099706,25.3915 L106.259412,25.3915 L106.259412,20.8292 L109.098853,20.8292 C110.368451,20.8105132 111.413874,21.8307466 111.436765,23.11078 C111.436765,24.14106 110.587235,25.39408 109.098853,25.39408 L109.099706,25.39408 L109.099706,25.3915 Z M121.419588,23.478 C119.979824,23.478 118.482059,24.11268 117.865382,25.51792 L119.635235,26.2558 C120.015647,25.51792 120.715912,25.27798 121.455412,25.27798 C122.490029,25.27798 123.539147,25.89718 123.556206,26.99024 L123.556206,27.12956 C123.193706,26.92316 122.421794,26.61356 121.471618,26.61356 C119.566147,26.61356 117.625706,27.66018 117.625706,29.6098 C117.625706,31.3943 119.185735,32.5424 120.941941,32.5424 C122.281912,32.5424 123.020559,31.9404 123.486265,31.23864 L123.5545,31.23864 L123.5545,32.26634 L125.479588,32.26634 L125.479588,27.15966 C125.479588,24.79896 123.711441,23.47886 121.420441,23.47886 L121.419588,23.47886 L121.419588,23.478 Z M121.179059,30.7751 C120.527412,30.7751 119.618176,30.4526 119.618176,29.64678 C119.618176,28.6165 120.752588,28.2209 121.733471,28.2209 C122.610294,28.2209 123.023118,28.4144 123.556206,28.6681 C123.398412,29.90134 122.333088,30.7751 121.178206,30.7751 L121.179059,30.7751 Z M132.491618,23.7704 L130.202324,29.54358 L130.134941,29.54358 L127.766324,23.7704 L125.616912,23.7704 L129.174529,31.83634 L127.143676,36.32296 L129.226559,36.32296 L134.710971,23.76954 L132.493324,23.76954 L132.491618,23.7704 Z M114.526118,32.2887 L116.524559,32.2887 L116.524559,18.9759 L114.526118,18.9759 L114.526118,32.28956 L114.526118,32.2887 Z" id="Shape" fill="#FFFFFF" fill-rule="nonzero"></path>
                                <path d="M11.3952941,34.91084 C11.0814118,34.58232 10.9005882,34.07234 10.9005882,33.41186 L10.9005882,9.85904 C10.9005882,9.19856 11.0814118,8.68686 11.3952941,8.36092 L11.4729118,8.28868 L24.7182353,21.4828 L24.7182353,21.79498 L11.4720588,34.98652 L11.3952941,34.90912 L11.3952941,34.91084 Z" id="Path" fill="url(#linearGradient-1)" transform="translate(17.809412, 21.637600) scale(-1, 1) rotate(-180.000000) translate(-17.809412, -21.637600) "></path>
                                <path d="M29.1262353,17.08046 L24.7165294,21.48108 L24.7165294,21.79326 L29.1322059,26.19302 L29.2311471,26.1354 L34.4588235,23.16926 C35.9514706,22.32818 35.9514706,20.94358 34.4588235,20.09648 L29.2328529,17.13808 L29.1262353,17.08132 L29.1262353,17.08046 Z" id="Path" fill="url(#linearGradient-2)" transform="translate(30.147419, 21.636740) scale(-1, 1) rotate(-180.000000) translate(-30.147419, -21.636740) "></path>
                                <path d="M29.2328529,30.8363401 L24.7173824,35.3367201 L11.3952941,22.0583201 C11.89,21.5406001 12.7002941,21.4778201 13.6189118,21.9981201 L29.2328529,30.8372001" id="Path" fill="url(#linearGradient-3)" transform="translate(20.314074, 28.487160) scale(-1, 1) rotate(-180.000000) translate(-20.314074, -28.487160) "></path>
                                <path d="M29.2328529,12.4423017 L13.6155,21.2822417 C12.6968824,21.7956617 11.8882941,21.7346017 11.3927353,21.2160217 L24.7182353,7.94278174 L29.2337059,12.4423017 L29.2328529,12.4423017 Z" id="Path" fill="url(#linearGradient-4)" transform="translate(20.313221, 14.790191) scale(-1, 1) rotate(-180.000000) translate(-20.313221, -14.790191) "></path>
                            </g>
                        </g>
                    </g>
                </g>
            </g>
        </g>
    </g>
</svg>