<?xml version="1.0" encoding="UTF-8"?>
<svg width="61px" height="57px" viewBox="0 0 61 57" version="1.1" xmlns="http://www.w3.org/2000/svg" xmlns:xlink="http://www.w3.org/1999/xlink">
    <!-- Generator: Sketch 53.2 (72643) - https://sketchapp.com -->
    <title>cornamusa</title>
    <desc>Created with Sketch.</desc>
    <g id="Symbols" stroke="none" stroke-width="1" fill="none" fill-rule="evenodd">
        <g id="header/normal/1280" transform="translate(-22.000000, -24.000000)" fill="#002453">
            <g id="header">
                <g id="cornamusa">
                    <g id="logo-cornamusa">
                        <g id="cornamusa" transform="translate(22.000000, 24.000000)">
                            <path d="M39.7489474,6.342 C38.3784211,6.342 37.1101316,6.73621053 36.0057895,7.37910526 C34.9014474,6.73713158 33.635,6.342 32.2653947,6.342 C31.6040789,6.342 30.9657895,6.43594737 30.3542105,6.59621053 C29.7656579,6.447 29.1596053,6.342 28.5240789,6.342 C27.1627632,6.342 25.9027632,6.73344737 24.8030263,7.36897368 C23.6968421,6.72239474 22.4147368,6.342 21.0405263,6.342 C16.9077632,6.342 13.5569737,9.69278947 13.5569737,13.8255526 L13.5569737,17.5677895 L17.2982895,17.5677895 L17.2982895,13.8255526 C17.2982895,11.7587105 18.9736842,10.0833158 21.0405263,10.0833158 C21.3748684,10.0833158 21.6935526,10.1422632 22.0021053,10.2242368 C21.4080263,11.2972632 21.0405263,12.5130526 21.0405263,13.8255526 L21.0405263,17.5677895 L24.7818421,17.5677895 L24.7818421,13.8255526 C24.7818421,11.7587105 26.4572368,10.0833158 28.5240789,10.0833158 L28.5240789,17.5677895 L32.2653947,17.5677895 L32.2653947,10.0833158 C34.3322368,10.0833158 36.0076316,11.7587105 36.0076316,13.8255526 L36.0076316,17.5677895 L39.7489474,17.5677895 L39.7489474,13.8255526 C39.7489474,12.5121316 39.3814474,11.2972632 38.7873684,10.2233158 C39.0959211,10.1413421 39.4146053,10.0833158 39.7489474,10.0833158 C41.8157895,10.0833158 43.4902632,11.7587105 43.4902632,13.8255526 L43.4902632,17.5677895 L47.2325,17.5677895 L47.2325,13.8255526 C47.2325,9.69278947 43.8817105,6.342 39.7489474,6.342" id="Fill-3"></path>
                            <polygon id="Fill-2" points="41.6197895 24.1221842 30.3949211 24.1221842 19.1691316 24.1221842 19.1691316 22.2515263 19.1691316 20.3808684 30.3949211 20.3808684 41.6197895 20.3808684 41.6197895 22.2515263"></polygon>
                            <polygon id="Fill-5" points="31.2111579 2.01148684 31.2111579 0.248592105 29.5781316 0.248592105 29.5781316 2.01148684 27.8161579 2.01148684 27.8161579 3.64451316 29.5781316 3.64451316 29.5790526 5.40648684 31.2111579 5.40648684 31.2111579 3.64451316 32.9740526 3.64451316 32.9740526 2.01148684"></polygon>
                            <path d="M34.1357763,41.8879079 C34.1357763,43.95475 32.4613026,45.6292237 30.3944605,45.6292237 C28.3285395,45.6292237 26.6531447,43.95475 26.6531447,41.8879079 C26.6531447,39.8219868 28.3285395,38.1465921 30.3944605,38.1465921 C32.4613026,38.1465921 34.1357763,39.8219868 34.1357763,41.8879079 L34.1357763,41.8879079 Z M30.3944605,53.1136974 C24.1966974,53.1136974 19.1686711,48.0856711 19.1686711,41.8879079 C19.1686711,35.6901447 24.1966974,30.6648816 30.3944605,30.6648816 C36.5931447,30.6648816 41.6184079,35.6901447 41.6184079,41.8658026 C40.3473553,42.8200132 38.9574868,43.6277763 37.4644605,44.2384342 C37.7113026,43.4942237 37.8770921,42.7140921 37.8770921,41.8879079 C37.8770921,37.6584342 34.5272237,34.4108026 30.3944605,34.4108026 C26.2616974,34.4108026 22.9173553,37.7551447 22.9173553,41.8879079 C22.9173553,46.0206711 26.2616974,49.3714605 30.3944605,49.3714605 C41.5207763,49.3714605 50.7635395,41.2827763 52.5374868,30.6630395 L56.3248553,30.6630395 C54.5343289,43.3579079 43.5913026,53.1136974 30.3944605,53.1136974 L30.3944605,53.1136974 Z M4.49998684,30.6639605 L15.4273553,30.6639605 L15.4273553,41.8888289 L15.4282763,41.8888289 C15.4282763,44.8168553 16.2811711,47.5394868 17.7345921,49.8458026 C10.7097237,45.9580395 5.68630263,38.9340921 4.49998684,30.6639605 L4.49998684,30.6639605 Z M49.1028816,26.9217237 C49.1028816,31.3483026 47.5619605,35.4129079 44.9903816,38.6135658 C43.4955132,31.9248816 37.5344605,26.9226447 30.3944605,26.9226447 C25.9181447,26.9226447 21.9115658,28.8983026 19.1686711,32.0133026 L19.1686711,26.9226447 L0.46025,26.9217237 C0.46025,43.4546184 13.8624868,56.8559342 30.3944605,56.8559342 C46.9273553,56.8559342 60.3286711,43.4546184 60.3286711,26.9217237 L49.1028816,26.9217237 Z" id="Fill-7"></path>
                        </g>
                    </g>
                </g>
            </g>
        </g>
    </g>
</svg>