<?xml version="1.0" encoding="UTF-8"?> <svg xmlns="http://www.w3.org/2000/svg" width="42" height="42" viewBox="0 0 42 42"><path fill="#ffffff" fill-rule="nonzero" d="M21,0 C32.5979797,-2.22044605e-15 42,9.40202025 42,21 C42,32.5979797 32.5979797,42 21,42 C9.40202025,42 1.44328993e-15,32.5979797 0,21 C-1.33226763e-15,9.40202025 9.40202025,5.66213743e-15 21,0 Z M21,2 C10.5065898,2 2,10.5065898 2,21 C2,31.4934102 10.5065898,40 21,40 C31.4934102,40 40,31.4934102 40,21 C40,10.5065898 31.4934102,2 21,2 Z M24.1897059,19.1640639 L23.9484375,21.4346939 L22.0817096,21.4346939 C22.0817096,24.3141083 22.0817096,27.8598048 22.0817096,27.8598048 L19.3152574,27.8598048 C19.3152574,27.8598048 19.3152574,24.3487134 19.3152574,21.4346939 L18,21.4346939 L18,19.1640639 L19.3152574,19.1640639 L19.3152574,17.6952085 C19.3152574,16.6434783 19.8328125,15 22.1070772,15 L24.1557904,15.0077196 L24.1557904,17.2112689 C24.1557904,17.2112689 22.9100184,17.2112689 22.6681985,17.2112689 C22.4258272,17.2112689 22.0817096,17.3281278 22.0817096,17.82937 L22.0817096,19.1640639 L24.1897059,19.1640639 Z"></path></svg> 