<?xml version="1.0" encoding="UTF-8"?> <svg xmlns="http://www.w3.org/2000/svg" width="42" height="42" viewBox="0 0 42 42"><path fill="#ffffff" fill-rule="nonzero" d="M21,0 C32.5979797,-2.22044605e-15 42,9.40202025 42,21 C42,32.5979797 32.5979797,42 21,42 C9.40202025,42 1.44328993e-15,32.5979797 0,21 C-1.33226763e-15,9.40202025 9.40202025,5.66213743e-15 21,0 Z M21,2 C10.5065898,2 2,10.5065898 2,21 C2,31.4934102 10.5065898,40 21,40 C31.4934102,40 40,31.4934102 40,21 C40,10.5065898 31.4934102,2 21,2 Z M20.5019075,14 C18.4645009,14 18.2090285,14.008631 17.4088719,14.045119 C16.6103829,14.0815179 16.0650435,14.2082738 15.5878679,14.393631 C15.0945521,14.5852083 14.6761896,14.8415774 14.2591076,15.2583929 C13.8420554,15.6752381 13.5855407,16.0933631 13.3938545,16.5863988 C13.2083921,17.0633036 13.0815642,17.6083333 13.0451447,18.406369 C13.0086359,19.2060714 13,19.4613988 13,21.4976488 C13,23.533869 13.0086359,23.7891964 13.0451447,24.5888988 C13.0815642,25.3869345 13.2083921,25.9319643 13.3938545,26.408869 C13.5855407,26.9019048 13.8420554,27.3200298 14.2591076,27.736875 C14.6761896,28.1536905 15.0945521,28.4100595 15.5878679,28.6016667 C16.0650435,28.786994 16.6103829,28.91375 17.4088719,28.9501488 C18.2090285,28.9866369 18.4645009,28.9952679 20.5019075,28.9952679 C22.5392843,28.9952679 22.7947567,28.9866369 23.5949133,28.9501488 C24.3934023,28.91375 24.9387416,28.786994 25.4159173,28.6016667 C25.909233,28.4100595 26.3275955,28.1536905 26.7446775,27.736875 C27.1617297,27.3200298 27.4182444,26.9019048 27.6099604,26.408869 C27.795393,25.9319643 27.922221,25.3869345 27.9586405,24.5888988 C27.9951493,23.7891964 28.0037851,23.533869 28.0037851,21.4976488 C28.0037851,19.4613988 27.9951493,19.2060714 27.9586405,18.406369 C27.922221,17.6083333 27.795393,17.0633036 27.6099604,16.5863988 C27.4182444,16.0933631 27.1617297,15.6752381 26.7446775,15.2583929 C26.3275955,14.8415774 25.909233,14.5852083 25.4159173,14.393631 C24.9387416,14.2082738 24.3934023,14.0815179 23.5949133,14.045119 C22.7947567,14.008631 22.5392843,14 20.5019075,14 Z M20.5019075,15.3509226 C22.5049791,15.3509226 22.7422566,15.3585714 23.5333009,15.3946429 C24.264728,15.4279762 24.6619476,15.550119 24.9262941,15.6527976 C25.2764631,15.7888095 25.5263669,15.9512798 25.7888671,16.2136607 C26.051397,16.4760119 26.2139596,16.7257738 26.3500487,17.075744 C26.4527856,17.3399405 26.5749979,17.7369345 26.6083501,18.4679464 C26.644442,19.2585417 26.6520952,19.4956845 26.6520952,21.4976488 C26.6520952,23.4995833 26.644442,23.7367262 26.6083501,24.5273214 C26.5749979,25.2583333 26.4527856,25.6553274 26.3500487,25.9195238 C26.2139596,26.269494 26.051397,26.519256 25.7888671,26.7816071 C25.5263669,27.0439881 25.2764631,27.2064583 24.9262941,27.3424702 C24.6619476,27.4451488 24.264728,27.5672917 23.5333009,27.600625 C22.7423757,27.6366964 22.505128,27.6443452 20.5019075,27.6443452 C18.4986572,27.6443452 18.2614392,27.6366964 17.4704842,27.600625 C16.7390571,27.5672917 16.3418376,27.4451488 16.0774911,27.3424702 C15.727322,27.2064583 15.4774183,27.0439881 15.2149181,26.7816071 C14.9524179,26.519256 14.7898256,26.269494 14.6537364,25.9195238 C14.5509995,25.6553274 14.4287873,25.2583333 14.395435,24.5273214 C14.3593431,23.7367262 14.3516899,23.4995833 14.3516899,21.4976488 C14.3516899,19.4956845 14.3593431,19.2585417 14.395435,18.4679464 C14.4287873,17.7369345 14.5509995,17.3399405 14.6537364,17.075744 C14.7898256,16.7257738 14.9523881,16.4760119 15.2149181,16.2136607 C15.4774183,15.9512798 15.727322,15.7888095 16.0774911,15.6527976 C16.3418376,15.550119 16.7390571,15.4279762 17.4704842,15.3946429 C18.2615285,15.3585714 18.4988061,15.3509226 20.5019075,15.3509226 Z M20.5019075,23.9968452 C19.1208258,23.9968452 18.0012617,22.8779167 18.0012617,21.4976488 C18.0012617,20.1173512 19.1208258,18.9984226 20.5019075,18.9984226 C21.8829593,18.9984226 23.0025234,20.1173512 23.0025234,21.4976488 C23.0025234,22.8779167 21.8829593,23.9968452 20.5019075,23.9968452 Z M20.5019075,17.6475 C18.3743009,17.6475 16.6495718,19.37125 16.6495718,21.4976488 C16.6495718,23.6240179 18.3743009,25.3477679 20.5019075,25.3477679 C22.6294843,25.3477679 24.3542134,23.6240179 24.3542134,21.4976488 C24.3542134,19.37125 22.6294843,17.6475 20.5019075,17.6475 Z M25.406656,17.4953869 C25.406656,17.9922917 25.0035999,18.3950893 24.5064129,18.3950893 C24.0092556,18.3950893 23.6061994,17.9922917 23.6061994,17.4953869 C23.6061994,16.9984821 24.0092556,16.5956548 24.5064129,16.5956548 C25.0035999,16.5956548 25.406656,16.9984821 25.406656,17.4953869"></path></svg> 