<?xml version="1.0" encoding="UTF-8"?> <svg xmlns="http://www.w3.org/2000/svg" id="Capa_1" data-name="Capa 1" viewBox="0 0 292 83"><defs><style>.cls-1{fill:#ffcd00;}.cls-2{fill:#002e6d;}</style></defs><rect class="cls-1" width="63" height="83"></rect><path class="cls-2" d="M75,58.56c0-6.6,3.42-10.05,8.89-10.05A9.76,9.76,0,0,1,90,50.69l-.92,2.57a8.24,8.24,0,0,0-5.19-1.93c-3.64,0-5.88,2.07-5.88,6.52v1.43c0,4.59,2.32,6.82,5.91,6.82a8.49,8.49,0,0,0,5.19-1.82l.94,2.49a10,10,0,0,1-6.21,2.15C78.19,68.92,75,65.14,75,58.56Z"></path><path class="cls-2" d="M92.08,61.38c0-4.14,2.26-7.54,6.93-7.54s6.93,3.4,6.93,7.54-2.26,7.54-6.93,7.54S92.08,65.52,92.08,61.38Zm10.83.42V61c0-3-1.41-4.64-3.9-4.64S95.12,58,95.12,61v.83c0,3,1.41,4.64,3.89,4.64S102.91,64.78,102.91,61.8Z"></path><path class="cls-2" d="M117,53.84v2.82c-3.45,0-4.42.44-5.11,2.54v9.45h-2.95V54.12h2.95v3.37C112.6,55.19,113.65,53.84,117,53.84Z"></path><path class="cls-2" d="M127.68,53.84v2.82c-3.45,0-4.42.44-5.11,2.54v9.45h-2.95V54.12h2.95v3.37C123.29,55.19,124.34,53.84,127.68,53.84Z"></path><path class="cls-2" d="M141.63,62.27h-9.58c.11,2.95,1.24,4.22,3.75,4.22a9.37,9.37,0,0,0,4.89-1.35l.55,2.37a9.38,9.38,0,0,1-5.33,1.41c-4.67,0-6.9-2.68-6.9-7.54,0-4.25,2.12-7.54,6.57-7.54s6,3.26,6,7.4Zm-9.56-2.21h6.83c-.14-2.57-1.25-3.73-3.29-3.73S132.24,57.43,132.07,60.06Z"></path><path class="cls-2" d="M143.67,61.38c0-4.14,2.27-7.54,6.94-7.54s6.93,3.4,6.93,7.54-2.27,7.54-6.93,7.54S143.67,65.52,143.67,61.38Zm10.83.42V61c0-3-1.41-4.64-3.89-4.64s-3.9,1.65-3.9,4.64v.83c0,3,1.41,4.64,3.9,4.64S154.5,64.78,154.5,61.8Z"></path><path class="cls-2" d="M159.28,67.54l.61-2.35a9.8,9.8,0,0,0,4.55,1.16c1.6,0,2.71-.38,2.71-1.74s-.94-1.57-2.71-2l-.36-.08c-2.76-.63-4.64-1.52-4.64-4.28,0-2.13,1.5-4.42,5.42-4.42a9,9,0,0,1,4.86,1.33l-.55,2.48a7.59,7.59,0,0,0-4.31-1.24c-1.8,0-2.65.58-2.65,1.66s.63,1.49,2.95,2l.36.09c2.18.49,4.45,1.18,4.45,4.3,0,2.55-1.72,4.45-5.5,4.45A9.58,9.58,0,0,1,159.28,67.54Z"></path><path class="cls-2" d="M193.08,54.89c0,3.78-2.56,6.1-6.73,6.1h-4.23v7.66h-3V48.79h7.21C190.52,48.79,193.08,51.11,193.08,54.89ZM190,54.73c0-1.47-.36-3.35-4.33-3.35h-3.54v7h3.54c2.81,0,4.33-.83,4.33-3.34Z"></path><path class="cls-2" d="M204.21,53.84v2.82c-3.45,0-4.41.44-5.1,2.54v9.45h-3V54.12h3v3.37C199.82,55.19,200.87,53.84,204.21,53.84Z"></path><path class="cls-2" d="M218.16,62.27h-9.58c.11,2.95,1.24,4.22,3.76,4.22a9.33,9.33,0,0,0,4.88-1.35l.56,2.37a9.41,9.41,0,0,1-5.33,1.41c-4.67,0-6.91-2.68-6.91-7.54,0-4.25,2.13-7.54,6.57-7.54s6,3.26,6,7.4Zm-9.55-2.21h6.82c-.14-2.57-1.24-3.73-3.29-3.73S208.77,57.43,208.61,60.06Z"></path><path class="cls-2" d="M234.82,61.38c0,4.78-2.54,7.54-6.19,7.54a4.53,4.53,0,0,1-4.58-3.26V74.5h-3V54.12h3v3a4.53,4.53,0,0,1,4.58-3.26C232.28,53.84,234.82,56.6,234.82,61.38Zm-3-.44c0-3.37-1.44-4.61-3.87-4.61-1.71,0-3.17.49-3.86,2.18v5.74c.69,1.69,2.15,2.19,3.86,2.19,2.43,0,3.87-1.25,3.87-4.62Z"></path><path class="cls-2" d="M248.79,59.78v8.87h-2.95V66.08a4.4,4.4,0,0,1-4.56,2.84,4,4,0,0,1-4.36-4.17c0-2.68,1.9-4.31,5.3-4.47l3.62-.17V60c0-2.79-1-3.51-3.12-3.51a9.1,9.1,0,0,0-4.67,1.25l-.55-2.46a10.57,10.57,0,0,1,5.33-1.41C247.27,53.84,248.79,56.13,248.79,59.78Zm-2.95,5V62.24l-3.12.19c-2.16.14-3,.64-3,2.07s.74,2.07,2.29,2.07S245.15,66.16,245.84,64.83Z"></path><path class="cls-2" d="M265.23,54.12V67.4c0,4.17-1.77,7.38-6.94,7.38a10.85,10.85,0,0,1-5.63-1.41l.55-2.46a10.48,10.48,0,0,0,5.2,1.38c2.65,0,3.86-1.38,3.86-4.58V65.25a4.54,4.54,0,0,1-4.58,3.23c-3.65,0-6.19-2.68-6.19-7.32s2.54-7.32,6.19-7.32a4.54,4.54,0,0,1,4.58,3.23v-3Zm-3,9.72V58.48c-.69-1.66-2.15-2.15-3.86-2.15-2.43,0-3.87,1.18-3.87,4.39v.88c0,3.21,1.44,4.39,3.87,4.39C260.12,66,261.58,65.5,262.27,63.84Z"></path><path class="cls-2" d="M268.21,61.38c0-4.14,2.27-7.54,6.93-7.54s6.94,3.4,6.94,7.54-2.27,7.54-6.94,7.54S268.21,65.52,268.21,61.38ZM279,61.8V61c0-3-1.41-4.64-3.9-4.64S271.25,58,271.25,61v.83c0,3,1.41,4.64,3.89,4.64S279,64.78,279,61.8Z"></path><polygon class="cls-2" points="38.95 49.64 31.55 49.64 24.16 49.64 24.16 48.41 24.16 47.18 31.55 47.18 38.95 47.18 38.95 48.41 38.95 49.64"></polygon><path class="cls-2" d="M34,61.31a2.47,2.47,0,1,1-2.47-2.46A2.47,2.47,0,0,1,34,61.31m5.25,5.55-.21.11c-.41.2-.82.38-1.24.54l-.32.12-1,.34-.36.1c-.44.12-.88.23-1.33.31l-.25,0c-.38.07-.77.12-1.16.16l-.39,0c-.48,0-1,.07-1.44.07-.25,0-.5,0-.75,0A7.38,7.38,0,1,1,39,61.3a12.54,12.54,0,0,1-2.74,1.56,4.92,4.92,0,1,0-4.66,3.37h0A14.78,14.78,0,0,0,46.13,53.94h2.49a17.23,17.23,0,0,1-9.35,12.92M14.49,53.94h7.2v7.37h0a9.73,9.73,0,0,0,1.52,5.23,17.19,17.19,0,0,1-8.72-12.6m34.32-2.46H43.88a12.15,12.15,0,0,1-2.71,7.68,9.86,9.86,0,0,0-17-4.33V51.48H11.82a19.73,19.73,0,0,0,39.46,0Z"></path><path class="cls-2" d="M37.76,38a4.92,4.92,0,0,0-2.47.68A4.91,4.91,0,0,0,32.83,38a4.73,4.73,0,0,0-1.26.17,4.63,4.63,0,0,0-3.66.51,4.92,4.92,0,0,0-7.41,4.24v2.46H23V42.88a2.47,2.47,0,0,1,2.47-2.46,2.59,2.59,0,0,1,.63.09,4.9,4.9,0,0,0-.63,2.37v2.46h2.46V42.88a2.47,2.47,0,0,1,2.47-2.46v4.92h2.47V40.42a2.46,2.46,0,0,1,2.46,2.46v2.46h2.47V42.88a4.8,4.8,0,0,0-.64-2.37,2.74,2.74,0,0,1,.64-.09,2.46,2.46,0,0,1,2.46,2.46v2.46h2.47V42.88A4.93,4.93,0,0,0,37.76,38"></path><polygon class="cls-2" points="32.09 35.12 32.09 33.96 31.02 33.96 31.02 35.12 29.85 35.12 29.85 36.19 31.02 36.19 31.02 37.35 32.09 37.35 32.09 36.19 33.25 36.19 33.25 35.12 32.09 35.12"></polygon></svg> 