<?xml version="1.0" encoding="UTF-8" standalone="no"?>
<!DOCTYPE svg PUBLIC "-//W3C//DTD SVG 20010904//EN" "http://www.w3.org/TR/2001/REC-SVG-20010904/DTD/svg10.dtd">
<svg version="1.0" xmlns="http://www.w3.org/2000/svg" width="976.000000pt" height="976.000000pt" viewBox="0 0 976.000000 976.000000" preserveAspectRatio="xMidYMid meet">
<metadata>
Created by potrace 1.11, written by Peter Selinger 2001-2013
</metadata>
<g transform="translate(0.000000,976.000000) scale(0.100000,-0.100000)" fill="#000000" stroke="none">
<path d="M4738 9406 c0 -1 -2 -66 -3 -146 l-2 -144 -141 2 -141 1 0 -132 0 -132 141 0 141 0 1 -140 1 -140 120 0 c66 -1 125 0 130 2 6 2 9 52 9 126 -1 67 0 129 2 138 4 13 22 16 117 16 61 1 123 1 137 2 l26 1 -1 125 c0 103 -3 126 -15 129 -8 3 -68 4 -133 4 -65 0 -121 3 -125 6 -4 4 -7 66 -8 138 -1 146 -4 153 -67 138 -20 -4 -37 -5 -37 -1 0 3 -14 6 -30 7 -17 1 -30 -2 -30 -6 0 -4 -20 -4 -45 0 -25 4 -46 6 -47 6z"/>
<path d="M3266 8422 c-2 -2 -24 -6 -48 -8 -97 -11 -93 -10 -243 -54 -68 -20 -205 -90 -289 -148 -109 -74 -306 -274 -306 -310 0 -6 -3 -12 -7 -14 -14 -6 -59 -82 -95 -164 -45 -98 -83 -232 -98 -341 -10 -79 -16 -740 -6 -750 2 -3 89 -4 193 -4 103 0 236 1 295 1 l106 0 1 333 c0 182 3 343 6 357 13 67 19 85 42 142 30 74 101 170 160 218 23 19 49 40 56 45 23 19 128 67 174 80 72 20 174 26 240 14 76 -14 75 -13 46 -71 -15 -29 -28 -55 -29 -58 -1 -5 -17 -47 -31 -80 -7 -18 -8 -20 -27 -91 -9 -31 -18 -71 -20 -90 -3 -19 -5 -34 -6 -34 -12 0 -20 -754 -8 -761 6 -4 196 -6 483 -4 l110 0 1 343 c0 296 3 350 18 402 22 74 66 175 77 175 4 0 10 9 14 20 8 27 90 109 146 147 44 31 132 74 174 87 43 12 145 25 160 20 7 -3 10 -211 10 -599 l-1 -595 71 0 c253 -2 519 1 524 5 2 3 5 272 5 598 l1 592 30 -1 c46 -1 128 -15 148 -26 10 -5 27 -11 38 -13 36 -7 129 -66 185 -117 66 -62 135 -164 160 -238 34 -102 35 -124 36 -478 0 -172 4 -315 9 -318 7 -4 199 -6 511 -4 l78 0 0 73 c1 39 1 81 0 92 0 11 0 31 1 45 0 14 1 30 1 35 -1 6 -1 39 -1 75 0 36 0 73 -1 83 0 33 -1 52 -1 137 -1 232 -33 387 -115 558 -20 41 -34 75 -32 76 44 30 230 27 328 -6 19 -7 37 -13 40 -13 7 -2 69 -32 102 -51 40 -22 141 -122 175 -174 17 -25 39 -65 50 -90 18 -41 23 -57 40 -125 3 -11 6 -68 8 -126 1 -59 5 -111 9 -118 4 -6 4 -11 -1 -11 -10 0 -10 -131 1 -148 4 -6 4 -12 -1 -12 -10 0 -10 -131 1 -148 4 -6 4 -12 -1 -12 -12 0 -8 -119 4 -131 7 -7 82 -10 199 -10 104 0 235 1 290 1 l102 0 -3 368 c-2 202 -5 377 -8 389 -3 11 -9 43 -13 70 -23 157 -139 403 -253 537 -40 47 -142 146 -181 175 -19 14 -37 28 -40 31 -16 18 -147 92 -220 123 -82 36 -220 80 -220 71 0 -3 -8 0 -18 5 -22 12 -142 24 -242 24 -73 1 -197 -10 -209 -17 -3 -2 -22 -7 -43 -10 -59 -9 -177 -51 -267 -95 l-84 -41 -74 40 c-40 22 -76 41 -80 41 -12 2 -36 10 -60 19 -28 11 -139 41 -173 46 -132 21 -265 24 -352 10 -82 -13 -104 -17 -138 -25 -21 -4 -51 -2 -77 5 -87 26 -264 35 -383 20 -104 -14 -299 -70 -312 -90 -4 -6 -8 -7 -8 -3 0 5 -29 -7 -64 -26 l-65 -34 -88 43 c-48 24 -95 43 -104 44 -8 0 -20 5 -27 12 -7 7 -12 9 -12 5 0 -3 -19 0 -41 9 -23 8 -51 16 -63 19 -12 2 -32 6 -45 9 -71 16 -314 29 -325 18z"/>
<path d="M3068 6167 c-2 -6 -3 -140 -3 -297 l1 -285 54 -3 c82 -3 124 -4 133 -2 19 4 76 3 90 -3 10 -4 17 -2 17 3 0 5 13 5 30 0 16 -5 32 -5 35 0 3 5 18 5 34 0 16 -4 32 -6 35 -2 8 7 69 7 89 -1 10 -4 17 -2 17 3 0 5 13 5 30 0 16 -5 32 -5 35 0 3 5 18 5 34 0 16 -4 32 -6 35 -2 8 7 69 7 90 -1 10 -4 23 -4 29 0 13 8 69 8 90 0 10 -4 17 -3 17 1 0 9 95 7 109 -3 6 -3 11 -2 11 4 0 6 11 6 29 1 19 -5 33 -4 40 3 8 8 11 8 11 -2 0 -7 5 -9 12 -5 14 9 69 10 91 1 10 -4 17 -3 17 1 0 9 95 7 109 -3 6 -3 11 -2 11 4 0 6 11 6 30 1 16 -5 32 -5 34 -2 2 4 90 5 196 2 105 -3 194 -3 196 -1 6 7 69 5 87 -2 10 -4 17 -2 17 3 0 5 13 5 30 0 16 -5 32 -5 35 0 3 5 18 5 34 0 16 -4 32 -6 35 -2 8 7 69 7 89 -1 10 -4 17 -2 17 3 0 5 13 5 30 0 16 -5 32 -5 35 0 3 5 18 5 34 0 16 -4 32 -6 35 -2 4 3 25 5 49 4 52 -2 379 -3 390 -1 25 3 76 1 90 -4 10 -4 17 -3 17 1 0 9 95 7 109 -3 6 -3 11 -2 11 4 0 6 11 6 29 1 19 -5 33 -4 40 3 8 8 11 8 11 -2 0 -7 5 -9 12 -5 14 9 69 10 91 1 10 -4 17 -3 17 1 0 9 95 7 109 -3 6 -3 11 -2 11 4 0 6 11 6 30 1 16 -5 32 -5 35 0 3 5 18 5 34 0 16 -4 32 -6 35 -2 8 7 69 7 89 -1 10 -4 17 -2 17 3 0 5 13 5 30 0 17 -5 32 -5 35 0 3 5 12 7 20 3 13 -4 15 35 15 296 l0 301 -1794 0 c-1421 0 -1795 -3 -1798 -13z"/>
<path d="M81 5130 c-15 -10 -1 -326 24 -545 5 -38 9 -81 11 -95 1 -14 3 -25 4 -25 1 0 3 -11 5 -25 8 -71 19 -135 49 -285 9 -44 18 -90 20 -103 3 -12 7 -26 10 -30 3 -5 8 -24 11 -43 3 -19 13 -59 21 -89 9 -30 17 -59 18 -65 2 -5 9 -30 16 -55 7 -25 14 -49 16 -55 1 -5 13 -42 27 -82 14 -40 22 -74 19 -77 -3 -4 0 -6 6 -6 7 0 12 -11 12 -25 0 -14 4 -25 8 -25 5 0 9 -6 9 -12 0 -7 16 -53 37 -103 20 -49 38 -97 41 -105 2 -8 12 -33 23 -55 11 -22 30 -62 42 -90 117 -260 254 -496 454 -785 17 -25 33 -47 36 -50 3 -3 25 -32 49 -65 25 -33 47 -62 51 -65 3 -3 25 -29 48 -59 104 -133 270 -310 428 -459 54 -51 113 -106 129 -122 24 -22 135 -113 275 -223 19 -15 125 -90 210 -148 80 -55 223 -144 287 -180 15 -8 55 -30 88 -49 65 -36 312 -160 320 -160 3 0 33 -14 67 -30 34 -17 65 -30 70 -30 4 0 27 -9 51 -19 84 -38 414 -153 474 -164 10 -2 25 -6 33 -10 23 -8 140 -38 169 -43 14 -3 42 -9 61 -14 19 -5 47 -12 63 -15 15 -3 39 -8 55 -11 15 -3 36 -7 47 -9 11 -1 49 -8 85 -14 98 -17 111 -19 165 -26 28 -3 64 -9 81 -11 205 -31 779 -36 1019 -9 22 2 65 7 95 10 30 3 82 10 115 15 33 5 78 12 100 15 73 11 98 16 104 19 3 2 31 7 61 11 30 4 59 10 65 13 5 3 16 7 25 8 24 2 59 10 150 34 47 12 92 23 100 25 8 2 15 4 15 5 0 1 7 3 15 5 45 8 229 68 253 81 15 8 27 13 27 10 0 -5 41 9 115 39 11 4 25 9 30 11 37 10 199 81 352 155 67 32 126 59 132 59 5 0 11 4 13 9 2 4 39 27 83 50 44 23 120 66 169 96 49 30 92 55 97 55 4 0 9 3 11 8 2 4 43 34 93 67 103 69 100 66 141 100 18 14 35 25 39 25 4 0 13 6 19 13 6 8 54 47 106 88 95 74 116 91 219 184 91 81 321 314 390 395 35 41 71 82 80 91 9 9 25 29 36 44 11 16 35 44 52 64 18 20 33 40 33 44 0 4 9 17 19 29 30 31 161 217 161 227 0 5 7 14 15 21 12 10 65 94 148 235 7 11 27 43 44 72 18 29 31 53 28 53 -3 0 5 17 18 38 52 84 210 426 201 435 -3 2 2 10 11 17 8 7 15 23 15 36 0 13 4 24 8 24 5 0 9 6 9 13 1 6 22 71 48 142 26 72 48 137 50 145 2 8 10 38 19 65 12 40 34 116 41 145 8 32 48 200 52 215 2 11 6 34 8 50 2 17 5 31 6 33 2 3 4 12 13 62 5 25 10 54 12 65 2 10 6 35 9 55 3 20 7 45 9 55 2 11 7 47 10 80 4 33 9 76 11 95 14 108 29 386 26 490 l-1 25 -890 -1 c-489 0 -893 -3 -896 -7 -4 -3 -8 -42 -9 -86 -2 -44 -6 -85 -10 -90 -3 -6 -1 -11 5 -11 6 0 8 -5 4 -12 -5 -7 -9 -31 -10 -53 -2 -73 -16 -173 -49 -350 -3 -16 -10 -46 -15 -65 -5 -19 -11 -46 -14 -60 -2 -14 -14 -56 -26 -95 -13 -38 -23 -74 -25 -80 -1 -5 -4 -17 -7 -25 -3 -8 -20 -55 -38 -105 -18 -49 -43 -111 -56 -137 -13 -27 -21 -48 -19 -48 3 0 -7 -20 -20 -44 -14 -25 -25 -51 -25 -60 0 -8 -4 -16 -8 -18 -4 -1 -21 -28 -36 -58 -16 -30 -47 -86 -70 -123 -22 -37 -45 -77 -51 -87 -5 -11 -13 -20 -17 -20 -5 0 -8 -5 -8 -10 0 -19 -154 -220 -162 -212 -4 4 -9 16 -11 27 -6 33 -18 78 -34 125 -8 25 -16 52 -18 60 -5 21 -40 118 -60 165 -25 59 -118 249 -124 255 -3 3 -15 21 -25 40 -23 42 -133 208 -149 226 -7 7 -23 27 -37 45 -67 89 -246 273 -349 359 -29 25 -59 50 -65 55 -7 6 -19 15 -28 20 -8 6 -56 38 -106 73 -50 34 -96 62 -102 62 -5 0 -10 4 -10 9 0 5 -8 11 -17 14 -10 3 -60 28 -111 56 -51 28 -94 51 -97 51 -3 0 -25 9 -51 20 -25 11 -48 20 -51 20 -3 0 -19 7 -36 14 -35 16 -213 74 -247 81 -12 2 -30 7 -40 10 -26 8 -84 19 -160 30 -14 2 -36 7 -50 10 -27 6 -93 14 -175 20 -60 5 -304 5 -360 1 -61 -5 -164 -17 -188 -22 -12 -2 -39 -6 -62 -10 -22 -3 -67 -12 -100 -20 -33 -8 -69 -17 -81 -19 -12 -3 -40 -11 -63 -19 -22 -9 -41 -13 -41 -10 0 2 -10 -1 -22 -8 -13 -7 -25 -13 -28 -13 -79 -19 -347 -136 -362 -159 -4 -6 -8 -7 -8 -3 0 4 -25 -8 -55 -28 -31 -19 -60 -35 -65 -35 -6 0 -10 -4 -10 -10 0 -5 -5 -10 -11 -10 -12 0 -102 -61 -107 -72 -2 -5 -10 -8 -17 -8 -7 0 -15 -3 -17 -7 -1 -5 -37 -35 -78 -67 -65 -52 -172 -149 -231 -210 -11 -11 -19 -24 -19 -30 0 -5 -3 -7 -6 -3 -3 3 -16 -6 -28 -19 l-21 -25 1 405 c1 365 -1 406 -15 407 -66 4 -2965 3 -2970 -1z m2375 -599 c9 -1 12 -253 13 -958 1 -527 3 -980 6 -1008 6 -86 16 -165 30 -237 3 -16 7 -38 9 -50 2 -13 12 -54 21 -93 9 -38 18 -77 20 -85 6 -26 52 -162 78 -230 33 -87 123 -273 164 -337 18 -29 33 -54 33 -57 0 -3 -15 3 -34 13 -18 11 -44 25 -57 33 -13 7 -26 15 -29 18 -3 3 -21 14 -42 25 -60 33 -277 182 -359 247 -231 183 -395 337 -604 570 -40 44 -140 169 -195 243 -25 33 -48 62 -52 63 -5 2 -8 10 -8 18 0 8 -4 14 -10 14 -5 0 -10 6 -10 14 0 8 -3 16 -7 18 -12 5 -134 192 -156 239 -4 8 -16 28 -27 44 -60 94 -194 366 -253 515 -14 36 -31 79 -38 95 -7 17 -13 33 -14 38 -2 4 -4 9 -5 12 -1 3 -3 8 -5 13 -1 4 -4 14 -8 22 -8 22 -58 179 -61 193 -2 7 -6 19 -9 27 -9 21 -85 331 -86 350 0 8 -5 38 -11 65 -6 28 -13 66 -15 85 -3 19 -7 46 -10 60 l-5 25 862 -1 c475 -1 868 -2 874 -3z m2539 -6 c95 -5 160 -11 160 -15 0 -1 11 -3 25 -5 25 -4 117 -23 135 -28 223 -65 371 -132 540 -243 44 -29 95 -66 114 -83 19 -17 38 -31 42 -31 7 0 186 -177 232 -228 15 -18 27 -36 27 -41 0 -6 6 -14 13 -18 6 -4 26 -28 42 -53 16 -25 33 -47 36 -50 21 -16 128 -224 171 -330 35 -86 71 -207 88 -295 6 -33 14 -71 17 -85 3 -14 7 -41 9 -60 10 -127 12 -202 8 -215 -3 -8 -31 -31 -62 -51 -32 -21 -59 -40 -62 -44 -10 -11 -141 -90 -151 -90 -5 0 -9 -4 -9 -8 0 -10 -341 -182 -359 -182 -7 0 -10 8 -7 18 19 66 35 134 44 187 8 55 8 301 -1 350 -4 22 -10 52 -12 67 -3 15 -9 38 -15 52 -5 15 -8 26 -5 26 7 0 -43 130 -78 200 -41 84 -107 190 -118 190 -5 0 -9 5 -9 10 0 18 -111 135 -184 194 -122 99 -302 194 -421 222 -41 10 -159 35 -191 40 -74 13 -285 6 -364 -11 -14 -3 -37 -7 -51 -10 -14 -3 -44 -11 -67 -19 -23 -8 -42 -13 -42 -11 0 9 -200 -83 -255 -118 -37 -23 -130 -91 -152 -112 -69 -62 -103 -97 -103 -105 0 -6 -4 -10 -9 -10 -5 0 -26 -24 -47 -52 -21 -29 -41 -55 -44 -58 -4 -3 -15 -21 -26 -40 -10 -19 -22 -37 -25 -40 -13 -12 -96 -195 -104 -230 -2 -8 -11 -42 -19 -75 -15 -56 -20 -82 -32 -160 -12 -84 -3 -282 17 -375 5 -25 12 -58 14 -74 3 -16 9 -34 14 -40 5 -6 10 -15 10 -21 4 -45 118 -276 151 -308 11 -10 20 -22 20 -27 0 -19 137 -162 211 -221 89 -70 106 -81 198 -130 99 -52 199 -92 212 -83 5 3 9 0 9 -5 0 -6 3 -10 8 -9 4 1 18 -2 32 -5 14 -4 36 -9 50 -11 14 -3 25 -5 25 -6 0 -21 485 -17 630 4 17 3 50 8 75 11 25 3 63 8 85 12 22 3 46 6 53 6 6 0 12 3 12 6 0 3 12 6 28 7 27 0 56 6 125 23 20 5 37 7 37 4 0 -2 6 -1 13 4 6 4 17 8 22 9 53 11 106 24 125 31 8 3 20 7 25 8 33 8 263 88 335 118 47 19 110 45 140 58 30 12 62 28 71 36 8 7 22 13 30 13 8 0 19 4 25 9 5 4 44 26 86 49 91 47 200 113 209 125 3 5 9 8 13 8 14 -3 328 222 382 274 6 5 37 33 70 60 71 61 283 273 333 334 20 25 47 56 60 70 26 29 221 287 221 294 0 2 25 42 55 88 30 46 55 90 55 96 0 7 4 13 9 13 14 0 200 380 232 475 8 22 16 42 19 45 3 3 27 70 52 150 66 202 104 354 125 490 3 19 7 37 9 40 8 7 596 6 600 -2 4 -6 -7 -92 -21 -158 -3 -14 -7 -36 -10 -49 -16 -86 -27 -140 -35 -166 -5 -16 -11 -41 -14 -55 -9 -48 -75 -266 -111 -365 -20 -55 -41 -116 -48 -135 -6 -19 -16 -38 -22 -42 -5 -4 -6 -8 -2 -8 4 0 2 -10 -5 -22 -6 -13 -13 -28 -14 -34 -4 -22 -157 -331 -210 -421 -29 -52 -54 -99 -54 -104 0 -5 -4 -9 -10 -9 -5 0 -10 -7 -10 -15 0 -8 -4 -15 -10 -15 -5 0 -10 -5 -10 -11 0 -5 -19 -38 -42 -72 -23 -34 -41 -64 -39 -66 1 -2 -1 -7 -6 -10 -5 -3 -33 -40 -63 -81 -29 -41 -57 -79 -62 -85 -4 -5 -38 -48 -75 -95 -161 -203 -393 -439 -573 -586 -19 -16 -37 -31 -40 -34 -3 -3 -34 -28 -70 -55 -35 -28 -73 -58 -84 -68 -11 -9 -23 -17 -26 -17 -4 0 -16 -8 -28 -18 -11 -9 -28 -23 -39 -29 -10 -7 -44 -31 -76 -53 -32 -22 -61 -40 -66 -40 -4 0 -16 -8 -27 -18 -10 -10 -26 -21 -34 -25 -8 -4 -28 -15 -45 -26 -33 -20 -89 -52 -150 -84 -22 -12 -43 -26 -47 -32 -4 -5 -8 -7 -8 -2 0 4 -18 -4 -39 -17 -21 -14 -41 -23 -43 -20 -3 2 -11 -2 -18 -11 -7 -8 -18 -15 -24 -15 -6 0 -24 -7 -41 -16 -16 -8 -61 -29 -100 -46 -38 -17 -83 -36 -100 -43 -47 -21 -168 -67 -180 -69 -17 -3 -89 -28 -100 -35 -5 -3 -12 -6 -15 -6 -3 -1 -32 -9 -65 -19 -33 -10 -67 -20 -75 -22 -8 -2 -67 -17 -130 -34 -63 -17 -128 -33 -145 -35 -16 -3 -50 -10 -75 -15 -62 -13 -100 -20 -135 -24 -16 -2 -64 -9 -105 -15 -172 -25 -319 -35 -530 -35 -151 1 -295 7 -295 14 0 1 -11 3 -25 5 -14 2 -36 6 -50 8 -14 3 -43 8 -65 12 -22 4 -44 10 -50 14 -5 3 -14 6 -20 7 -35 7 -52 12 -65 17 -8 3 -37 13 -64 22 -80 26 -261 109 -288 133 -10 8 -18 11 -18 6 0 -5 -4 -4 -8 1 -10 14 -89 65 -101 65 -5 0 -11 3 -13 8 -1 4 -28 26 -58 49 -125 96 -262 230 -325 318 -11 16 -25 33 -31 39 -67 69 -242 404 -269 516 -2 8 -15 58 -29 110 -14 52 -27 109 -30 125 -3 17 -8 48 -11 70 -16 102 -22 328 -11 420 7 58 32 209 41 245 3 14 8 35 11 47 2 12 20 66 40 120 19 54 36 104 36 111 1 6 5 12 10 12 4 0 8 7 8 16 0 17 81 177 92 182 5 2 8 8 8 14 0 9 82 133 120 182 41 53 173 195 211 229 24 21 60 52 79 68 19 17 67 52 105 77 39 26 76 53 83 59 7 7 20 13 28 13 8 0 14 3 14 8 0 4 25 18 55 32 30 14 55 28 55 33 0 4 6 7 13 7 7 0 30 9 52 20 22 11 46 20 55 20 9 0 21 5 28 12 7 7 31 17 55 24 23 6 85 23 137 38 52 14 118 29 145 32 28 4 53 8 56 10 4 2 47 7 95 10 49 3 90 7 91 8 2 2 17 1 198 -9z m45 -1217 c103 -34 216 -103 256 -158 7 -8 25 -30 42 -49 30 -35 80 -126 87 -158 2 -10 9 -31 15 -48 22 -53 22 -232 0 -311 -20 -73 -69 -174 -104 -213 -102 -115 -168 -161 -291 -202 -58 -20 -89 -24 -180 -23 -60 1 -121 4 -135 8 -14 4 -32 9 -40 11 -8 2 -16 4 -17 4 -2 1 -5 1 -8 1 -9 0 -109 53 -144 77 -85 58 -191 193 -217 278 -44 140 -49 242 -20 364 7 32 39 115 46 121 3 3 14 22 25 42 43 83 155 181 261 229 131 60 295 70 424 27z"/>
</g>
</svg>