<?xml version="1.0" encoding="UTF-8"?> <svg xmlns="http://www.w3.org/2000/svg" width="42" height="42" viewBox="0 0 42 42"><path fill="#ffffff" fill-rule="nonzero" d="M21,0 C32.5979797,-2.22044605e-15 42,9.40202025 42,21 C42,32.5979797 32.5979797,42 21,42 C9.40202025,42 1.44328993e-15,32.5979797 0,21 C-1.33226763e-15,9.40202025 9.40202025,5.66213743e-15 21,0 Z M21,2 C10.5065898,2 2,10.5065898 2,21 C2,31.4934102 10.5065898,40 21,40 C31.4934102,40 40,31.4934102 40,21 C40,10.5065898 31.4934102,2 21,2 Z M27.2352941,17.1580103 C26.8715203,17.6533229 26.4110268,18.0885237 25.88068,18.4360001 C25.8857847,18.5420512 25.8882027,18.6488354 25.8882027,18.755864 C25.8882027,22.019503 23.1572126,25.7826087 18.1624426,25.7826087 C16.6291657,25.7826087 15.2020118,25.3740429 14,24.6729812 C14.2125148,24.6959508 14.428791,24.70768 14.6477538,24.70768 C15.920156,24.70768 17.0907339,24.3127983 18.0200496,23.650345 C16.8320085,23.6305521 15.8293469,22.9162951 15.4835738,21.9351996 C15.6493407,21.9642782 15.8194063,21.9796727 15.9945765,21.9796727 C16.2422866,21.9796727 16.4822054,21.9493724 16.7100341,21.8931702 C15.4677225,21.6659177 14.5316901,20.6679616 14.5316901,19.4715872 C14.5316901,19.4610798 14.5316901,19.4505724 14.5319587,19.4403094 C14.8981505,19.6252881 15.3170008,19.7364707 15.7619118,19.7494217 C15.0332895,19.3066459 14.5539893,18.5506037 14.5539893,17.6938863 C14.5539893,17.2408475 14.687785,16.8166428 14.9215244,16.4520614 C16.2608246,17.9463076 18.2618491,18.9293579 20.5186436,19.0324767 C20.4721644,18.8514078 20.4482531,18.6630082 20.4482531,18.4697214 C20.4482531,17.1057177 21.6639669,16 23.1633919,16 C23.944404,16 24.6501897,16.300071 25.1453412,16.7799892 C25.764079,16.6690509 26.3449349,16.4635462 26.8696397,16.1803358 C26.6667968,16.7575083 26.2366625,17.2413362 25.6756879,17.5467831 C26.2251099,17.4874042 26.74874,17.3547181 27.2352941,17.1580103 Z"></path></svg> 