<?xml version="1.0" encoding="UTF-8"?>
<svg width="40px" height="24px" viewBox="0 0 40 24" version="1.1" xmlns="http://www.w3.org/2000/svg" xmlns:xlink="http://www.w3.org/1999/xlink">
    <title>logos/footer/mastercard</title>
    <g id="UI-KIT" stroke="none" stroke-width="1" fill="none" fill-rule="evenodd">
        <g id="Correos_web_UIkit_06_Menu&amp;Footer" transform="translate(-672.000000, -11028.000000)">
            <g id="molecules/footer/desktop" transform="translate(-240.000000, 10640.000000)">
                <g id="Group-9" transform="translate(912.000000, 388.000000)">
                    <path d="M23.4180725,11.7091288 C23.4180725,18.1760822 18.1760822,23.4178875 11.7093138,23.4178875 C5.24236046,23.4178875 7.10542736e-15,18.1760822 7.10542736e-15,11.7091288 C7.10542736e-15,5.24236046 5.24236046,-1.24344979e-14 11.7093138,-1.24344979e-14 C18.1760822,-1.24344979e-14 23.4180725,5.24236046 23.4180725,11.7091288" id="Fill-333" fill="#CC0000"></path>
                    <path d="M27.4293637,-1.24344979e-14 C24.403224,-1.24344979e-14 21.6468723,1.14780142 19.5685061,3.03076566 C19.1456903,3.41453805 18.7510006,3.82902704 18.3866574,4.27034679 L20.7523903,4.27034679 C21.0754696,4.66374124 21.3731985,5.07730503 21.6450219,5.51048303 L17.4938407,5.51048303 C17.2455174,5.90850348 17.0197689,6.32206726 16.8191859,6.75061927 L22.3193067,6.75061927 C22.507307,7.15197043 22.6727325,7.56534918 22.8152131,7.99020039 L16.3232794,7.99020039 C16.1882004,8.39395707 16.0742159,8.80770589 15.9831764,9.22959647 L23.1549461,9.22959647 C23.3266629,10.0289681 23.4180725,10.8583161 23.4180725,11.7091288 C23.4180725,13.0090329 23.2062021,14.2602715 22.8152131,15.4287974 L16.3232794,15.4287974 C16.46576,15.8532785 16.6311855,16.2672123 16.8188158,16.6691186 L22.3193067,16.6691186 C22.1183535,17.0965604 21.8937153,17.5104943 21.6439117,17.9090698 L17.4938407,17.9090698 C17.7645538,18.3409526 18.0628378,18.7550715 18.3866574,19.1479108 L20.7516501,19.1479108 C20.388047,19.5896006 19.9929872,20.0040896 19.5688762,20.387862 C21.6470573,22.2708262 24.403224,23.4178875 27.4293637,23.4178875 C33.895947,23.4178875 39.1381224,18.1760822 39.1381224,11.7091288 C39.1381224,5.24291558 33.895947,-1.24344979e-14 27.4293637,-1.24344979e-14" id="Fill-334" fill="#FF9900"></path>
                    <path d="M8.97498181,12.991084 C8.84156816,12.9759108 8.78272553,12.9710997 8.69113087,12.9710997 C7.97058618,12.9710997 7.60624296,13.2183128 7.60624296,13.7066326 C7.60624296,14.0073222 7.78406613,14.1984682 8.06162572,14.1984682 C8.57955191,14.1984682 8.95277704,13.7055224 8.97498181,12.991084 L8.97498181,12.991084 Z M9.89962531,15.1432811 L8.84600912,15.1432811 L8.87024932,14.6427486 C8.54902036,15.0379935 8.12028331,15.226734 7.5379633,15.226734 C6.84924544,15.226734 6.37683902,14.6890085 6.37683902,13.9075858 C6.37683902,12.7312882 7.19823036,12.045346 8.60841811,12.045346 C8.75293414,12.045346 8.93760378,12.0586688 9.12671438,12.082539 C9.1659428,11.9230347 9.17630503,11.8553102 9.17630503,11.7692667 C9.17630503,11.4495181 8.95499752,11.3296123 8.36120504,11.3296123 C7.73928652,11.323321 7.2263564,11.4781992 7.01559615,11.5474041 C7.02891901,11.4670968 7.19193901,10.4610358 7.19193901,10.4610358 C7.82514495,10.2748859 8.24296465,10.2053109 8.71315059,10.2053109 C9.80488498,10.2053109 10.3831341,10.6952961 10.3818388,11.621605 C10.3840593,11.8701134 10.3427955,12.1756139 10.2789568,12.5786305 C10.1686731,13.2780806 9.93182223,14.7781977 9.89962531,15.1432811 L9.89962531,15.1432811 Z" id="Fill-336" fill="#002E6D"></path>
                    <polyline id="Fill-337" fill="#002E6D" points="5.84484981 15.1432811 4.57344186 15.1432811 5.30212829 10.5779809 3.67581415 15.1432811 2.80964319 15.1432811 2.70250519 10.6035164 1.93718089 15.1432811 0.747375451 15.1432811 1.74122382 9.20406099 3.56923127 9.20406099 3.67969998 12.5284847 4.79493441 9.20406099 6.82796587 9.20406099 5.84484981 15.1432811"></polyline>
                    <path d="M28.9999809,12.991084 C28.8665673,12.9759108 28.8084648,12.9710997 28.7170552,12.9710997 C27.9959554,12.9710997 27.6319822,13.2183128 27.6319822,13.7066326 C27.6319822,14.0073222 27.8090652,14.1984682 28.087365,14.1984682 C28.6049211,14.1984682 28.9783313,13.7055224 28.9999809,12.991084 L28.9999809,12.991084 Z M29.9251795,15.1432811 L28.8719334,15.1432811 L28.8958035,14.6427486 C28.5745746,15.0379935 28.1460226,15.226734 27.5640726,15.226734 C26.8744296,15.226734 26.4025783,14.6890085 26.4025783,13.9075858 C26.4025783,12.7312882 27.2243397,12.045346 28.6341574,12.045346 C28.7784883,12.045346 28.9627879,12.0586688 29.1520836,12.082539 C29.191497,11.9230347 29.2016742,11.8553102 29.2016742,11.7692667 C29.2016742,11.4495181 28.9803667,11.3296123 28.3865742,11.3296123 C27.7646557,11.323321 27.2519106,11.4781992 27.0404102,11.5474041 C27.0544732,11.4670968 27.2178633,10.4610358 27.2178633,10.4610358 C27.8506992,10.2748859 28.2688889,10.2053109 28.7383347,10.2053109 C29.8308093,10.2053109 30.4083183,10.6952961 30.407208,11.621605 C30.4094285,11.8701134 30.3685347,12.1756139 30.3043259,12.5786305 C30.1944123,13.2780806 29.9570064,14.7781977 29.9251795,15.1432811 L29.9251795,15.1432811 Z" id="Fill-338" fill="#002E6D"></path>
                    <path d="M15.5488881,15.0698203 C15.2008284,15.1793638 14.9297452,15.226734 14.635532,15.226734 C13.9858576,15.226734 13.6311364,14.8533238 13.6311364,14.1655311 C13.6220695,13.9519953 13.7245815,13.3903997 13.8052588,12.8782098 C13.8789046,12.4268979 14.3566772,9.58209715 14.3566772,9.58209715 L15.6199434,9.58209715 L15.4724667,10.3131891 L16.2357556,10.3131891 L16.0634836,11.4741283 L15.2976042,11.4741283 C15.1508677,12.3924805 14.9415878,13.5367662 14.9391822,13.6884987 C14.9391822,13.9375622 15.0720408,14.0463656 15.3745807,14.0463656 C15.5194668,14.0463656 15.6316009,14.0315624 15.7172743,14.0008458 L15.5488881,15.0698203" id="Fill-339" fill="#002E6D"></path>
                    <path d="M19.4228798,15.0307769 C18.9887766,15.1634504 18.5704018,15.2282143 18.1264915,15.226734 C16.7118628,15.2248836 15.9744795,14.4865751 15.9744795,13.0719464 C15.9744795,11.4210219 16.9124459,10.2053109 18.1860743,10.2053109 C19.2276629,10.2053109 19.8932508,10.8858871 19.8932508,11.9528261 C19.8932508,12.3075473 19.847731,12.6532015 19.7372623,13.1409662 L17.2210921,13.1409662 C17.1361589,13.8417116 17.5843251,14.1335193 18.319858,14.1335193 C18.77154,14.1335193 19.1797376,14.0402593 19.63327,13.8298691 L19.4228798,15.0307769 L19.4228798,15.0307769 Z M18.7126974,12.1674722 C18.7199139,12.0666255 18.8464811,11.3051871 18.124271,11.3051871 C17.7223648,11.3051871 17.4342579,11.6119829 17.3174978,12.1674722 L18.7126974,12.1674722 L18.7126974,12.1674722 Z" id="Fill-340" fill="#002E6D"></path>
                    <path d="M10.661989,11.840322 C10.661989,12.450768 10.9580525,12.8721035 11.6297467,13.1887064 C12.1443422,13.4309234 12.2244644,13.5025338 12.2244644,13.7218059 C12.2244644,14.0224954 11.9972356,14.1590548 11.4944827,14.1590548 C11.1149662,14.1590548 10.7622805,14.099472 10.3553782,13.9679087 C10.3553782,13.9679087 10.1886574,15.0329974 10.1807007,15.0838833 C10.4695477,15.1464267 10.727123,15.2047142 11.5035497,15.226734 C12.8447176,15.226734 13.4642306,14.7160243 13.4642306,13.6122624 C13.4642306,12.9487099 13.205175,12.5592013 12.5682682,12.2660984 C12.0355389,12.0216609 11.9739206,11.9668891 11.9739206,11.7415107 C11.9739206,11.4804197 12.185421,11.347006 12.5960242,11.347006 C12.8456428,11.347006 13.1863009,11.3736518 13.5095653,11.4193566 L13.6903491,10.2991261 C13.3613485,10.2467598 12.8621113,10.2053109 12.571599,10.2053109 C11.1497537,10.2053109 10.657363,10.9478754 10.661989,11.840322" id="Fill-341" fill="#002E6D"></path>
                    <path d="M25.6052421,10.3328033 C25.9582979,10.3328033 26.2880387,10.424583 26.741201,10.6534772 L26.9493707,9.36449043 C26.7624805,9.2912147 26.1072549,8.86173749 25.5521357,8.86173749 C24.7016931,8.86173749 23.9818886,9.28436823 23.4765451,9.98030264 C22.7386067,9.7360502 22.4349565,10.2297362 22.0633967,10.7219419 L21.7331008,10.7989184 C21.7580812,10.6370086 21.780841,10.4762091 21.7736245,10.3131891 L20.6056538,10.3131891 C20.4465196,11.8084951 20.1639639,13.3224902 19.9428415,14.8183513 L19.884924,15.1432811 L21.1567021,15.1432811 C21.3689426,13.7639949 21.4849625,12.8811704 21.5556477,12.283122 L22.0345305,12.0177751 C22.106511,11.7511328 22.3298539,11.6615736 22.7791304,11.6724909 C22.7204728,11.9874285 22.6886459,12.3192048 22.6886459,12.6624535 C22.6886459,14.2428778 23.5424192,15.226734 24.9102329,15.226734 C25.2627336,15.226734 25.5654586,15.180474 26.0341642,15.0527966 L26.256952,13.6994161 C25.8354315,13.9064755 25.4903324,14.0039915 25.1774303,14.0039915 C24.4383816,14.0039915 23.9911406,13.4583093 23.9911406,12.5569808 C23.9911406,11.248935 24.6558033,10.3328033 25.6052421,10.3328033" id="Fill-342" fill="#002E6D"></path>
                    <path d="M36.3675226,9.20406099 L36.084967,10.9199344 C35.7380175,10.4627012 35.3646073,10.1314801 34.8716615,10.1314801 C34.2303138,10.1314801 33.6465134,10.6177645 33.2642214,11.3338682 C32.7318621,11.2233995 32.181739,11.0355842 32.181739,11.0355842 L32.1813689,11.0402102 C32.223743,10.6399693 32.2416919,10.396457 32.2374359,10.3131891 L31.0696502,10.3131891 C30.9110712,11.8084951 30.6281454,13.3224902 30.407208,14.8183513 L30.3487355,15.1432811 L31.6208836,15.1432811 C31.7926004,14.0286017 31.9237936,13.1019228 32.0205694,12.3680553 C32.4554127,11.9750309 32.6730195,11.6332625 33.1113786,11.6554673 C32.9169018,12.1258383 32.8034725,12.6672645 32.8034725,13.2227537 C32.8034725,14.4297679 33.4137335,15.226734 34.3381919,15.226734 C34.804122,15.226734 35.1616187,15.0659345 35.5102336,14.6936345 L35.4502807,15.142911 L36.6530389,15.142911 L37.6213518,9.20406099 L36.3675226,9.20406099 L36.3675226,9.20406099 Z M34.7778463,14.0274915 C34.3452235,14.0274915 34.1261364,13.7066326 34.1261364,13.0752771 C34.1261364,12.1258383 34.5356293,11.4528488 35.1120281,11.4528488 C35.5489069,11.4528488 35.7857577,11.7851801 35.7857577,12.3987718 C35.7857577,13.3563524 35.3694183,14.0274915 34.7778463,14.0274915 L34.7778463,14.0274915 Z" id="Fill-343" fill="#002E6D"></path>
                    <polyline id="Fill-344" fill="#FFFFFF" points="6.21048831 14.7907804 4.93945043 14.7907804 5.66795183 10.2254803 4.04200776 14.7907804 3.17546673 14.7907804 3.06851377 10.251941 2.30300442 14.7907804 1.11319899 14.7907804 2.10704735 8.85211543 3.9350548 8.85211543 3.98612577 12.5284847 5.21960058 8.85211543 7.19378941 8.85211543 6.21048831 14.7907804"></polyline>
                    <path d="M9.34080534,12.6393235 C9.20757674,12.6237802 9.14873411,12.6195242 9.05713944,12.6195242 C8.33659475,12.6195242 7.97206649,12.8663672 7.97206649,13.354317 C7.97206649,13.6546365 8.15007471,13.8468927 8.42781934,13.8468927 C8.94556049,13.8468927 9.31878562,13.3539469 9.34080534,12.6393235 L9.34080534,12.6393235 Z M10.2652638,14.7907804 L9.21220273,14.7907804 L9.2362579,14.290618 C8.91502894,14.6856778 8.48629189,14.8746034 7.90397188,14.8746034 C7.21506898,14.8746034 6.7428476,14.3361378 6.7428476,13.5549001 C6.7428476,12.3784175 7.56442398,11.6934004 8.97461173,11.6934004 C9.11875767,11.6934004 9.30342732,11.7065382 9.49272296,11.7309635 C9.53195138,11.5710892 9.5423136,11.5031796 9.5423136,11.416766 C9.5423136,11.0972024 9.32100609,10.9782219 8.72721361,10.9782219 C8.10511006,10.9708203 7.59236498,11.1256985 7.38141969,11.1947184 C7.39492759,11.1147812 7.55776255,10.1087202 7.55776255,10.1087202 C8.19115353,9.92294032 8.60897323,9.85281026 9.07915917,9.85281026 C10.1707085,9.85281026 10.7487726,10.3433506 10.7478474,11.2692894 C10.7498829,11.5174276 10.7089891,11.8244085 10.6449653,12.2263148 C10.5344966,12.9252099 10.2976458,14.4262521 10.2652638,14.7907804 L10.2652638,14.7907804 Z" id="Fill-345" fill="#FFFFFF"></path>
                    <path d="M27.3150092,9.01198975 L27.1068395,10.3007914 C26.652937,10.0726375 26.3241214,9.98030264 25.9714357,9.98030264 C25.022367,9.98030264 24.356594,10.8975446 24.356594,12.2057754 C24.356594,13.1071039 24.8040201,13.6516758 25.5430687,13.6516758 C25.856156,13.6516758 26.2019952,13.5549001 26.6225905,13.3471004 L26.3992476,14.700481 C25.9312821,14.8279734 25.6283721,14.8746034 25.2760564,14.8746034 C23.9073176,14.8746034 23.0548396,13.8905621 23.0548396,12.3105079 C23.0548396,10.1873621 24.2333576,8.70352853 25.9179592,8.70352853 C26.4730784,8.70352853 27.1286742,8.93871402 27.3150092,9.01198975" id="Fill-346" fill="#FFFFFF"></path>
                    <path d="M29.3656194,12.6393235 C29.233131,12.6237802 29.1741033,12.6195242 29.0826937,12.6195242 C28.362519,12.6195242 27.9978057,12.8663672 27.9978057,13.354317 C27.9978057,13.6546365 28.1756289,13.8468927 28.4531885,13.8468927 C28.9707446,13.8468927 29.3443398,13.3539469 29.3656194,12.6393235 L29.3656194,12.6393235 Z M30.290818,14.7907804 L29.2377569,14.7907804 L29.2616271,14.290618 C28.9403981,14.6856778 28.5116611,14.8746034 27.9298962,14.8746034 C27.2402531,14.8746034 26.7685869,14.3361378 26.7685869,13.5549001 C26.7685869,12.3784175 27.5894231,11.6934004 28.9999809,11.6934004 C29.1441268,11.6934004 29.3284264,11.7065382 29.517537,11.7309635 C29.5569505,11.5710892 29.5673127,11.5031796 29.5673127,11.416766 C29.5673127,11.0972024 29.3465603,10.9782219 28.7523977,10.9782219 C28.1308493,10.9708203 27.6182893,11.1256985 27.4069739,11.1947184 C27.4202968,11.1147812 27.5833168,10.1087202 27.5833168,10.1087202 C28.2167077,9.92294032 28.6341574,9.85281026 29.1043433,9.85281026 C30.1958926,9.85281026 30.7745119,10.3433506 30.7730316,11.2692894 C30.7756221,11.5174276 30.7343582,11.8244085 30.6703345,12.2263148 C30.5602359,12.9252099 30.323385,14.4262521 30.290818,14.7907804 L30.290818,14.7907804 Z" id="Fill-347" fill="#FFFFFF"></path>
                    <path d="M15.9145266,14.7175046 C15.566837,14.8270482 15.2953837,14.8746034 15.0015406,14.8746034 C14.3516811,14.8746034 13.9967749,14.5010082 13.9967749,13.8139557 C13.987893,13.5996797 14.0905901,13.0390093 14.1714524,12.5262642 C14.2445431,12.0745822 14.7225007,9.23015159 14.7225007,9.23015159 L15.986137,9.23015159 L15.8382903,9.9610585 L16.4870395,9.9610585 L16.3142124,11.1216277 L15.6634277,11.1216277 C15.5166912,12.040905 15.3074113,13.1844505 15.3048207,13.3361831 C15.3048207,13.5859867 15.4382344,13.6940499 15.7404043,13.6940499 C15.8852904,13.6940499 15.9972394,13.6798019 16.0832829,13.6483451 L15.9145266,14.7175046" id="Fill-348" fill="#FFFFFF"></path>
                    <path d="M19.7892585,14.6792014 C19.3549702,14.812245 18.9356702,14.8749735 18.492315,14.8746034 C17.0775013,14.8736782 16.3406731,14.1344445 16.3406731,12.7200008 C16.3406731,11.0685213 17.2784544,9.85281026 18.5511577,9.85281026 C19.5938565,9.85281026 20.2590743,10.5333864 20.2590743,11.6016207 C20.2590743,11.9556017 20.2128144,12.3010709 20.103641,12.7890206 L17.5871007,12.7890206 C17.5017974,13.4897661 17.9505187,13.7821288 18.6853115,13.7821288 C19.1373635,13.7821288 19.5453761,13.6884987 19.9994636,13.4775534 L19.7892585,14.6792014 L19.7892585,14.6792014 Z M19.078891,11.8149715 C19.0857374,11.7139398 19.2128597,10.9528714 18.4908347,10.9528714 C18.0885584,10.9528714 17.8004515,11.2602224 17.6833214,11.8149715 L19.078891,11.8149715 L19.078891,11.8149715 Z" id="Fill-349" fill="#FFFFFF"></path>
                    <path d="M11.0276275,11.4878213 C11.0276275,12.0993776 11.3240611,12.5197878 11.9959404,12.8367609 C12.5105358,13.0787928 12.590288,13.1504032 12.590288,13.3698603 C12.590288,13.67092 12.3632442,13.8067391 11.8601212,13.8067391 C11.4809748,13.8067391 11.1281041,13.7478965 10.7210167,13.6167033 C10.7210167,13.6167033 10.5544809,14.6810518 10.5467092,14.7311976 C10.8353712,14.7944812 11.0931315,14.8522136 11.8691882,14.8746034 C13.2107262,14.8746034 13.8302392,14.3640788 13.8302392,13.2603168 C13.8302392,12.5963943 13.5708135,12.2070707 12.9340918,11.9147079 C12.4011774,11.6695303 12.3399292,11.6153136 12.3399292,11.3895652 C12.3399292,11.1284741 12.5512446,10.9941353 12.9622178,10.9941353 C13.2112813,10.9941353 13.5523095,11.0218912 13.8753889,11.067411 L14.0563577,9.94736556 C13.727172,9.8953694 13.2283049,9.85281026 12.9376075,9.85281026 C11.5153922,9.85281026 11.0233716,10.5955597 11.0276275,11.4878213" id="Fill-350" fill="#FFFFFF"></path>
                    <path d="M37.0188624,14.7907804 L35.8164743,14.7907804 L35.8760571,14.3413189 C35.5272572,14.7138039 35.1699455,14.8746034 34.7040155,14.8746034 C33.7802972,14.8746034 33.169111,14.0785625 33.169111,12.8702531 C33.169111,11.2637382 34.1166994,9.90961746 35.237485,9.90961746 C35.7304308,9.90961746 36.103656,10.1109407 36.4513456,10.5683589 L36.7333461,8.85211543 L37.9869903,8.85211543 L37.0188624,14.7907804 L37.0188624,14.7907804 Z M35.1434848,13.6748058 C35.735797,13.6748058 36.1513962,13.0040368 36.1513962,12.0473814 C36.1513962,11.4336046 35.9147304,11.1001631 35.4778516,11.1001631 C34.9012678,11.1001631 34.49196,11.7733376 34.49196,12.7231465 C34.49196,13.3552422 34.711232,13.6748058 35.1434848,13.6748058 L35.1434848,13.6748058 Z" id="Fill-351" fill="#FFFFFF"></path>
                    <path d="M31.4358438,9.9610585 C31.2768947,11.4559944 30.994154,12.9699895 30.7730316,14.4660357 L30.7151141,14.7907804 L31.9865221,14.7907804 C32.4413497,11.8371763 32.5507082,11.2607775 33.2642214,11.332758 C33.3776507,10.7282332 33.5891511,10.1988346 33.7466199,9.93200727 C33.2142606,9.82098343 32.9169018,10.121858 32.5272081,10.6936308 C32.5582948,10.4462327 32.6143619,10.2062361 32.6038146,9.9610585 L31.4358438,9.9610585" id="Fill-352" fill="#FFFFFF"></path>
                    <path d="M20.9720324,9.9610585 C20.8123431,11.4559944 20.5292323,12.9699895 20.30848,14.4660357 L20.2507476,14.7907804 L21.5225256,14.7907804 C21.9775383,11.8371763 22.0865267,11.2607775 22.7989296,11.332758 C22.9130991,10.7282332 23.1249696,10.1988346 23.2820683,9.93200727 C22.7502642,9.82098343 22.4523502,10.121858 22.0633967,10.6936308 C22.0941133,10.4462327 22.1505504,10.2062361 22.139448,9.9610585 L20.9720324,9.9610585" id="Fill-353" fill="#FFFFFF"></path>
                </g>
            </g>
        </g>
    </g>
</svg>