<?xml version="1.0" encoding="UTF-8"?>
<svg width="48px" height="15px" viewBox="0 0 48 15" version="1.1" xmlns="http://www.w3.org/2000/svg" xmlns:xlink="http://www.w3.org/1999/xlink">
    <title>logos/footer/paypal</title>
    <g id="UI-KIT" stroke="none" stroke-width="1" fill="none" fill-rule="evenodd">
        <g id="Correos_web_UIkit_06_Menu&amp;Footer" transform="translate(-812.000000, -11033.000000)">
            <g id="molecules/footer/desktop" transform="translate(-240.000000, 10640.000000)">
                <g id="logos/footer/paypal" transform="translate(1052.000000, 394.000000)">
                    <g id="Paypal-light" transform="translate(24.000000, 6.600000) scale(1, -1) translate(-24.000000, -6.600000) ">
                        <path d="M32.6484466,9.56278215 C32.4469602,8.23981478 31.4366769,8.23981478 30.4591827,8.23981478 L29.9031943,8.23981478 L30.2933366,10.7099241 C30.3166216,10.8591381 30.4454018,10.9689102 30.5965166,10.9689102 L30.851701,10.9689102 C31.5169864,10.9689102 32.1452058,10.9689102 32.4692948,10.5901728 C32.6631779,10.3635006 32.721628,10.0270563 32.6484466,9.56278215 M32.2231392,13.0146625 L28.5374585,13.0146625 C28.2851253,13.0146625 28.0708084,12.8312339 28.0313665,12.5822271 L26.5411274,3.13137395 C26.5116648,2.94509406 26.6561267,2.77639671 26.8443074,2.77639671 L28.7356185,2.77639671 C28.9119191,2.77639671 29.0620835,2.90470174 29.0896454,3.07862633 L29.5125767,5.75830054 C29.5515435,6.00730734 29.7663356,6.190736 30.0181936,6.190736 L31.1843437,6.190736 C33.6121599,6.190736 35.0135359,7.36543979 35.3794428,9.69441361 C35.5443386,10.7123001 35.3860957,11.5125433 34.9094663,12.0728086 C34.3853165,12.6886727 33.4562931,13.0146625 32.2231392,13.0146625" id="Shape" fill="#0079C1"></path>
                        <path d="M6.36031505,9.56278215 C6.15882864,8.23981478 5.14854536,8.23981478 4.17105115,8.23981478 L3.6150627,8.23981478 L4.00520502,10.7099241 C4.02849001,10.8591381 4.15727024,10.9689102 4.30838505,10.9689102 L4.56356949,10.9689102 C5.2288548,10.9689102 5.85707422,10.9689102 6.18116322,10.5901728 C6.37504637,10.3635006 6.43349643,10.0270563 6.36031505,9.56278215 M5.93500765,13.0146625 L2.24932699,13.0146625 C1.99699377,13.0146625 1.78267686,12.8312339 1.74323494,12.5822271 L0.252995831,3.13137395 C0.223533196,2.94509406 0.367519947,2.77639671 0.556175855,2.77639671 L2.31633072,2.77639671 C2.56818874,2.77639671 2.78250565,2.95982538 2.82194757,3.20835696 L3.22444518,5.75830054 C3.26341189,6.00730734 3.47820401,6.190736 3.73006202,6.190736 L4.89621214,6.190736 C7.32402835,6.190736 8.72540435,7.36543979 9.09131128,9.69441361 C9.25620699,10.7123001 9.09796413,11.5125433 8.62133472,12.0728086 C8.09718493,12.6886727 7.1681615,13.0146625 5.93500765,13.0146625" id="Shape" fill="#00457C"></path>
                        <path d="M14.4916698,6.16992207 C14.3210716,5.16153961 13.5208284,4.4843742 12.4996155,4.4843742 C11.987821,4.4843742 11.5777201,4.64926992 11.3144572,4.96100361 C11.0535703,5.26988608 10.9552031,5.7104 11.0378886,6.20033512 C11.1966067,7.20016391 12.0101556,7.89871349 13.0156868,7.89871349 C13.5170268,7.89871349 13.9238013,7.73239216 14.1922914,7.41780725 C14.4626824,7.10084632 14.569128,6.65795638 14.4916698,6.16992207 M16.9513247,9.60517033 L15.1864178,9.60517033 C15.0353029,9.60517033 14.9065227,9.49539826 14.8827625,9.34570906 L14.8053043,8.85244752 L14.6822265,9.03112414 C14.2996875,9.58568698 13.4476471,9.77149166 12.5970323,9.77149166 C10.6472711,9.77149166 8.98168176,8.29360785 8.65759277,6.22124409 C8.48889542,5.18720062 8.72839814,4.19925192 9.31479962,3.50973121 C9.85320553,2.87628455 10.6216101,2.61254644 11.5373278,2.61254644 C13.109302,2.61254644 13.9808257,3.62187931 13.9808257,3.62187931 L13.9019419,3.13146899 C13.8724793,2.9451891 14.016466,2.77649175 14.2055971,2.77649175 L15.7946786,2.77649175 C16.0470118,2.77649175 16.2613287,2.95944521 16.3007707,3.208452 L17.2549799,9.2501931 C17.2844425,9.43647298 17.1399806,9.60517033 16.9513247,9.60517033" id="Shape" fill="#00457C"></path>
                        <path d="M40.7798489,6.16992207 C40.6092507,5.16153961 39.8090075,4.4843742 38.7877946,4.4843742 C38.2760001,4.4843742 37.8658992,4.64926992 37.6026363,4.96100361 C37.3412742,5.26988608 37.2433822,5.7104 37.3260677,6.20033512 C37.4847857,7.20016391 38.2983346,7.89871349 39.3038659,7.89871349 C39.8052059,7.89871349 40.2119803,7.73239216 40.4804705,7.41780725 C40.7508615,7.10084632 40.8573071,6.65795638 40.7798489,6.16992207 M43.2395037,9.60517033 L41.4745968,9.60517033 C41.323482,9.60517033 41.1947018,9.49539826 41.1709416,9.34570906 L41.0934834,8.85244752 L40.9699304,9.03112414 C40.5878665,9.58568698 39.7358261,9.77149166 38.8852113,9.77149166 C36.9354502,9.77149166 35.2698608,8.29360785 34.9457719,6.22124409 C34.7770745,5.18720062 35.0165772,4.19925192 35.6029787,3.50973121 C36.1413846,2.87628455 36.9097892,2.61254644 37.8255069,2.61254644 C39.397481,2.61254644 40.2690048,3.62187931 40.2690048,3.62187931 L40.190121,3.13146899 C40.1606583,2.9451891 40.3046451,2.77649175 40.4937762,2.77649175 L42.0828577,2.77649175 C42.3351909,2.77649175 42.5495078,2.95944521 42.5889497,3.208452 L43.543159,9.2501931 C43.5726216,9.43647298 43.4281597,9.60517033 43.2395037,9.60517033" id="Shape" fill="#0079C1"></path>
                        <path d="M26.3511884,9.60512281 L24.5772527,9.60512281 C24.4076049,9.60512281 24.2488868,9.52101174 24.1538461,9.38035142 L21.7065465,5.77640581 L20.6696518,9.23969109 C20.6045489,9.45638402 20.4049633,9.60512281 20.1787663,9.60512281 L18.4352436,9.60512281 C18.2247283,9.60512281 18.0764647,9.39793396 18.1444188,9.19882356 L20.0975064,3.46501453 L18.2603686,0.872777815 C18.1163818,0.669390589 18.2617942,0.38806994 18.5112762,0.38806994 L20.2833111,0.38806994 C20.4510581,0.38806994 20.6083505,0.470280197 20.7043417,0.608089299 L26.6035217,9.12279096 C26.7446572,9.32665339 26.5992448,9.60512281 26.3511884,9.60512281" id="Shape" fill="#00457C"></path>
                        <path d="M45.3196609,12.7549637 L43.8070872,3.13113635 C43.7776245,2.94485646 43.9216113,2.77615911 44.1102672,2.77615911 L45.6318697,2.77615911 C45.8837278,2.77615911 46.0985199,2.95958777 46.1374866,3.20859456 L47.6291513,12.6594477 C47.6586139,12.8457276 47.5146272,13.0144249 47.3254961,13.0144249 L45.6233161,13.0144249 C45.4717261,13.0144249 45.3429458,12.9046529 45.3196609,12.7549637" id="Shape" fill="#0079C1"></path>
                    </g>
                </g>
            </g>
        </g>
    </g>
</svg>